<?xml version="1.0" encoding="UTF-8" standalone="no"?><svg xmlns="http://www.w3.org/2000/svg" xmlns:xlink="http://www.w3.org/1999/xlink" contentScriptType="application/ecmascript" contentStyleType="text/css" height="462px" preserveAspectRatio="none" style="width:2214px;height:462px;" version="1.1" viewBox="0 0 2214 462" width="2214px" zoomAndPan="magnify"><defs><filter height="300%" id="frja69qc7wv0f" width="300%" x="-1" y="-1"><feGaussianBlur result="blurOut" stdDeviation="2.0"/><feColorMatrix in="blurOut" result="blurOut2" type="matrix" values="0 0 0 0 0 0 0 0 0 0 0 0 0 0 0 0 0 0 .4 0"/><feOffset dx="4.0" dy="4.0" in="blurOut2" result="blurOut3"/><feBlend in="SourceGraphic" in2="blurOut3" mode="normal"/></filter></defs><g><!--cluster Arezzo--><polygon fill="#FFFFFF" filter="url(#frja69qc7wv0f)" points="22,71,84,71,91,93.2969,1964,93.2969,1964,450,22,450,22,71" style="stroke: #000000; stroke-width: 1.5;"/><line style="stroke: #000000; stroke-width: 1.5;" x1="22" x2="91" y1="93.2969" y2="93.2969"/><text fill="#000000" font-family="sans-serif" font-size="14" font-weight="bold" lengthAdjust="spacingAndGlyphs" textLength="56" x="26" y="85.9951">Arezzo</text><!--cluster Controllers--><polygon fill="#FFFFFF" filter="url(#frja69qc7wv0f)" points="46,114,140,114,147,136.2969,1940,136.2969,1940,303,46,303,46,114" style="stroke: #000000; stroke-width: 1.5;"/><line style="stroke: #000000; stroke-width: 1.5;" x1="46" x2="147" y1="136.2969" y2="136.2969"/><text fill="#000000" font-family="sans-serif" font-size="14" font-weight="bold" lengthAdjust="spacingAndGlyphs" textLength="88" x="50" y="128.9951">Controllers</text><!--cluster Backend--><polygon fill="#FFFFFF" filter="url(#frja69qc7wv0f)" points="1800,327,1873,327,1880,349.2969,1902,349.2969,1902,426,1800,426,1800,327" style="stroke: #000000; stroke-width: 1.5;"/><line style="stroke: #000000; stroke-width: 1.5;" x1="1800" x2="1880" y1="349.2969" y2="349.2969"/><text fill="#000000" font-family="sans-serif" font-size="14" font-weight="bold" lengthAdjust="spacingAndGlyphs" textLength="67" x="1804" y="341.9951">Backend</text><!--class Controller--><rect fill="#FEFECE" filter="url(#frja69qc7wv0f)" height="73.6094" id="Controller" style="stroke: #A80036; stroke-width: 1.5;" width="146" x="1778" y="181"/><ellipse cx="1816.85" cy="197" fill="#A9DCDF" rx="11" ry="11" style="stroke: #A80036; stroke-width: 1.0;"/><path d="M1818.4281,198.8125 L1814.3813,198.8125 L1813.9906,199.7969 L1814.3813,199.7969 C1814.8344,199.7969 1814.975,199.8281 1815.1469,199.9531 C1815.3656,200.125 1815.4906,200.375 1815.4906,200.6563 C1815.4906,200.9375 1815.35,201.2344 1815.0844,201.375 C1814.9594,201.4688 1814.7406,201.5 1814.3813,201.5 L1812.1156,201.5 C1811.3656,201.5 1810.9906,201.2188 1810.9906,200.6563 C1810.9906,200.3594 1811.1469,200.0781 1811.3969,199.9219 C1811.5531,199.8125 1811.7094,199.7969 1812.1313,199.7969 L1814.7719,193.2813 L1813.6938,193.2813 C1813.2563,193.2813 1813.0844,193.25 1812.9125,193.1406 C1812.6938,192.9688 1812.5531,192.7188 1812.5531,192.4375 C1812.5531,192.1563 1812.7094,191.875 1812.9594,191.7031 C1813.1156,191.6094 1813.2406,191.5938 1813.6938,191.5938 L1817.3656,191.5938 L1820.7563,199.7969 C1821.225,199.7969 1821.3813,199.8281 1821.5531,199.9688 C1821.7719,200.125 1821.9125,200.375 1821.9125,200.6563 C1821.9125,200.9375 1821.7563,201.2344 1821.5063,201.375 C1821.3656,201.4688 1821.1469,201.5 1820.7875,201.5 L1818.4281,201.5 C1818.0063,201.5 1817.8031,201.4531 1817.6625,201.3281 C1817.4438,201.1719 1817.3031,200.9219 1817.3031,200.6563 C1817.3031,200.3594 1817.4594,200.0781 1817.7094,199.9219 C1817.8656,199.8125 1817.975,199.7969 1818.4281,199.7969 L1818.8188,199.7969 Z M1817.725,197.1094 L1816.3969,193.8438 L1815.0531,197.1094 Z "/><text fill="#000000" font-family="sans-serif" font-size="12" font-style="italic" lengthAdjust="spacingAndGlyphs" textLength="61" x="1836.15" y="201.1543">Controller</text><line style="stroke: #A80036; stroke-width: 1.5;" x1="1779" x2="1923" y1="213" y2="213"/><line style="stroke: #A80036; stroke-width: 1.5;" x1="1779" x2="1923" y1="221" y2="221"/><text fill="#000000" font-family="sans-serif" font-size="11" lengthAdjust="spacingAndGlyphs" textLength="64" x="1784" y="235.2104">Controller()</text><text fill="#000000" font-family="sans-serif" font-size="11" lengthAdjust="spacingAndGlyphs" textLength="134" x="1784" y="248.0151">void setModel(Model m)</text><!--class MenuController--><rect fill="#FEFECE" filter="url(#frja69qc7wv0f)" height="137.6328" id="MenuController" style="stroke: #A80036; stroke-width: 1.5;" width="323" x="1419.5" y="149"/><ellipse cx="1529.25" cy="165" fill="#ADD1B2" rx="11" ry="11" style="stroke: #A80036; stroke-width: 1.0;"/><path d="M1531.5938,160.6719 L1531.7656,160.75 C1531.9844,160.4375 1532.1875,160.3438 1532.4844,160.3438 C1532.7813,160.3438 1533.0625,160.4844 1533.2188,160.75 C1533.3125,160.9063 1533.3281,161.0313 1533.3281,161.4688 L1533.3281,162.8906 C1533.3281,163.3125 1533.2969,163.5 1533.1875,163.6563 C1533.0156,163.875 1532.75,164.0156 1532.4844,164.0156 C1532.2656,164.0156 1532.0313,163.9063 1531.8906,163.7656 C1531.75,163.6406 1531.7188,163.5156 1531.6563,163.1094 C1531.5625,162.7031 1531.3906,162.4844 1530.9063,162.2031 C1530.4375,161.9531 1529.8281,161.7969 1529.25,161.7969 C1527.5156,161.7969 1526.2656,163.1094 1526.2656,164.8906 L1526.2656,165.9844 C1526.2656,167.6875 1527.5625,168.7813 1529.6094,168.7813 C1530.375,168.7813 1531.0625,168.6563 1531.4844,168.3906 C1531.6719,168.2969 1531.6719,168.2969 1532.125,167.8125 C1532.3125,167.625 1532.5156,167.5469 1532.7344,167.5469 C1533.2031,167.5469 1533.5938,167.9375 1533.5938,168.3906 C1533.5938,168.7813 1533.2656,169.2344 1532.6875,169.6406 C1531.9375,170.1875 1530.7813,170.4844 1529.5625,170.4844 C1526.6719,170.4844 1524.5625,168.5938 1524.5625,166.0156 L1524.5625,164.8906 C1524.5625,162.1719 1526.5625,160.0938 1529.1875,160.0938 C1530.0625,160.0938 1530.6563,160.2344 1531.5938,160.6719 Z "/><text fill="#000000" font-family="sans-serif" font-size="12" lengthAdjust="spacingAndGlyphs" textLength="95" x="1549.75" y="169.1543">MenuController</text><line style="stroke: #A80036; stroke-width: 1.5;" x1="1420.5" x2="1741.5" y1="181" y2="181"/><line style="stroke: #A80036; stroke-width: 1.5;" x1="1420.5" x2="1741.5" y1="189" y2="189"/><text fill="#000000" font-family="sans-serif" font-size="11" lengthAdjust="spacingAndGlyphs" textLength="311" x="1425.5" y="203.2104">void initialize(URL location, ResourceBundle resources)</text><text fill="#000000" font-family="sans-serif" font-size="11" lengthAdjust="spacingAndGlyphs" textLength="217" x="1425.5" y="216.0151">void update(Observable o, Object arg)</text><text fill="#000000" font-family="sans-serif" font-size="11" lengthAdjust="spacingAndGlyphs" textLength="143" x="1425.5" y="228.8198">void OnTransposerClick()</text><text fill="#000000" font-family="sans-serif" font-size="11" lengthAdjust="spacingAndGlyphs" textLength="63" x="1425.5" y="241.6245">void Save()</text><text fill="#000000" font-family="sans-serif" font-size="11" lengthAdjust="spacingAndGlyphs" textLength="65" x="1425.5" y="254.4292">void Open()</text><text fill="#000000" font-family="sans-serif" font-size="11" lengthAdjust="spacingAndGlyphs" textLength="58" x="1425.5" y="267.2339">void Quit()</text><text fill="#000000" font-family="sans-serif" font-size="11" lengthAdjust="spacingAndGlyphs" textLength="127" x="1425.5" y="280.0386">void OnChangeName()</text><!--class BottomController--><rect fill="#FEFECE" filter="url(#frja69qc7wv0f)" height="137.6328" id="BottomController" style="stroke: #A80036; stroke-width: 1.5;" width="323" x="1061.5" y="149"/><ellipse cx="1165.75" cy="165" fill="#ADD1B2" rx="11" ry="11" style="stroke: #A80036; stroke-width: 1.0;"/><path d="M1168.0938,160.6719 L1168.2656,160.75 C1168.4844,160.4375 1168.6875,160.3438 1168.9844,160.3438 C1169.2813,160.3438 1169.5625,160.4844 1169.7188,160.75 C1169.8125,160.9063 1169.8281,161.0313 1169.8281,161.4688 L1169.8281,162.8906 C1169.8281,163.3125 1169.7969,163.5 1169.6875,163.6563 C1169.5156,163.875 1169.25,164.0156 1168.9844,164.0156 C1168.7656,164.0156 1168.5313,163.9063 1168.3906,163.7656 C1168.25,163.6406 1168.2188,163.5156 1168.1563,163.1094 C1168.0625,162.7031 1167.8906,162.4844 1167.4063,162.2031 C1166.9375,161.9531 1166.3281,161.7969 1165.75,161.7969 C1164.0156,161.7969 1162.7656,163.1094 1162.7656,164.8906 L1162.7656,165.9844 C1162.7656,167.6875 1164.0625,168.7813 1166.1094,168.7813 C1166.875,168.7813 1167.5625,168.6563 1167.9844,168.3906 C1168.1719,168.2969 1168.1719,168.2969 1168.625,167.8125 C1168.8125,167.625 1169.0156,167.5469 1169.2344,167.5469 C1169.7031,167.5469 1170.0938,167.9375 1170.0938,168.3906 C1170.0938,168.7813 1169.7656,169.2344 1169.1875,169.6406 C1168.4375,170.1875 1167.2813,170.4844 1166.0625,170.4844 C1163.1719,170.4844 1161.0625,168.5938 1161.0625,166.0156 L1161.0625,164.8906 C1161.0625,162.1719 1163.0625,160.0938 1165.6875,160.0938 C1166.5625,160.0938 1167.1563,160.2344 1168.0938,160.6719 Z "/><text fill="#000000" font-family="sans-serif" font-size="12" lengthAdjust="spacingAndGlyphs" textLength="106" x="1186.25" y="169.1543">BottomController</text><line style="stroke: #A80036; stroke-width: 1.5;" x1="1062.5" x2="1383.5" y1="181" y2="181"/><line style="stroke: #A80036; stroke-width: 1.5;" x1="1062.5" x2="1383.5" y1="189" y2="189"/><text fill="#000000" font-family="sans-serif" font-size="11" lengthAdjust="spacingAndGlyphs" textLength="311" x="1067.5" y="203.2104">void initialize(URL location, ResourceBundle resources)</text><text fill="#000000" font-family="sans-serif" font-size="11" lengthAdjust="spacingAndGlyphs" textLength="217" x="1067.5" y="216.0151">void update(Observable o, Object arg)</text><text fill="#000000" font-family="sans-serif" font-size="11" lengthAdjust="spacingAndGlyphs" textLength="135" x="1067.5" y="228.8198">void OnDureesChange()</text><text fill="#000000" font-family="sans-serif" font-size="11" lengthAdjust="spacingAndGlyphs" textLength="165" x="1067.5" y="241.6245">void OnNoteClick(Notes note)</text><text fill="#000000" font-family="sans-serif" font-size="11" lengthAdjust="spacingAndGlyphs" textLength="118" x="1067.5" y="254.4292">void OnSilenceClick()</text><text fill="#000000" font-family="sans-serif" font-size="11" lengthAdjust="spacingAndGlyphs" textLength="101" x="1067.5" y="267.2339">void OnPlayBack()</text><text fill="#000000" font-family="sans-serif" font-size="11" lengthAdjust="spacingAndGlyphs" textLength="122" x="1067.5" y="280.0386">void OnTempoScroll()</text><!--class MiddleController--><rect fill="#FEFECE" filter="url(#frja69qc7wv0f)" height="86.4141" id="MiddleController" style="stroke: #A80036; stroke-width: 1.5;" width="323" x="703.5" y="175"/><ellipse cx="810.25" cy="191" fill="#ADD1B2" rx="11" ry="11" style="stroke: #A80036; stroke-width: 1.0;"/><path d="M812.5938,186.6719 L812.7656,186.75 C812.9844,186.4375 813.1875,186.3438 813.4844,186.3438 C813.7813,186.3438 814.0625,186.4844 814.2188,186.75 C814.3125,186.9063 814.3281,187.0313 814.3281,187.4688 L814.3281,188.8906 C814.3281,189.3125 814.2969,189.5 814.1875,189.6563 C814.0156,189.875 813.75,190.0156 813.4844,190.0156 C813.2656,190.0156 813.0313,189.9063 812.8906,189.7656 C812.75,189.6406 812.7188,189.5156 812.6563,189.1094 C812.5625,188.7031 812.3906,188.4844 811.9063,188.2031 C811.4375,187.9531 810.8281,187.7969 810.25,187.7969 C808.5156,187.7969 807.2656,189.1094 807.2656,190.8906 L807.2656,191.9844 C807.2656,193.6875 808.5625,194.7813 810.6094,194.7813 C811.375,194.7813 812.0625,194.6563 812.4844,194.3906 C812.6719,194.2969 812.6719,194.2969 813.125,193.8125 C813.3125,193.625 813.5156,193.5469 813.7344,193.5469 C814.2031,193.5469 814.5938,193.9375 814.5938,194.3906 C814.5938,194.7813 814.2656,195.2344 813.6875,195.6406 C812.9375,196.1875 811.7813,196.4844 810.5625,196.4844 C807.6719,196.4844 805.5625,194.5938 805.5625,192.0156 L805.5625,190.8906 C805.5625,188.1719 807.5625,186.0938 810.1875,186.0938 C811.0625,186.0938 811.6563,186.2344 812.5938,186.6719 Z "/><text fill="#000000" font-family="sans-serif" font-size="12" lengthAdjust="spacingAndGlyphs" textLength="101" x="830.75" y="195.1543">MiddleController</text><line style="stroke: #A80036; stroke-width: 1.5;" x1="704.5" x2="1025.5" y1="207" y2="207"/><line style="stroke: #A80036; stroke-width: 1.5;" x1="704.5" x2="1025.5" y1="215" y2="215"/><text fill="#000000" font-family="sans-serif" font-size="11" lengthAdjust="spacingAndGlyphs" textLength="311" x="709.5" y="229.2104">void initialize(URL location, ResourceBundle resources)</text><text fill="#000000" font-family="sans-serif" font-size="11" lengthAdjust="spacingAndGlyphs" textLength="217" x="709.5" y="242.0151">void update(Observable o, Object arg)</text><text fill="#000000" font-family="sans-serif" font-size="11" lengthAdjust="spacingAndGlyphs" textLength="110" x="709.5" y="254.8198">void OnNotesClick()</text><!--class NotesWindowController--><rect fill="#FEFECE" filter="url(#frja69qc7wv0f)" height="137.6328" id="NotesWindowController" style="stroke: #A80036; stroke-width: 1.5;" width="323" x="345.5" y="149"/><ellipse cx="430.25" cy="165" fill="#ADD1B2" rx="11" ry="11" style="stroke: #A80036; stroke-width: 1.0;"/><path d="M432.5938,160.6719 L432.7656,160.75 C432.9844,160.4375 433.1875,160.3438 433.4844,160.3438 C433.7813,160.3438 434.0625,160.4844 434.2188,160.75 C434.3125,160.9063 434.3281,161.0313 434.3281,161.4688 L434.3281,162.8906 C434.3281,163.3125 434.2969,163.5 434.1875,163.6563 C434.0156,163.875 433.75,164.0156 433.4844,164.0156 C433.2656,164.0156 433.0313,163.9063 432.8906,163.7656 C432.75,163.6406 432.7188,163.5156 432.6563,163.1094 C432.5625,162.7031 432.3906,162.4844 431.9063,162.2031 C431.4375,161.9531 430.8281,161.7969 430.25,161.7969 C428.5156,161.7969 427.2656,163.1094 427.2656,164.8906 L427.2656,165.9844 C427.2656,167.6875 428.5625,168.7813 430.6094,168.7813 C431.375,168.7813 432.0625,168.6563 432.4844,168.3906 C432.6719,168.2969 432.6719,168.2969 433.125,167.8125 C433.3125,167.625 433.5156,167.5469 433.7344,167.5469 C434.2031,167.5469 434.5938,167.9375 434.5938,168.3906 C434.5938,168.7813 434.2656,169.2344 433.6875,169.6406 C432.9375,170.1875 431.7813,170.4844 430.5625,170.4844 C427.6719,170.4844 425.5625,168.5938 425.5625,166.0156 L425.5625,164.8906 C425.5625,162.1719 427.5625,160.0938 430.1875,160.0938 C431.0625,160.0938 431.6563,160.2344 432.5938,160.6719 Z "/><text fill="#000000" font-family="sans-serif" font-size="12" lengthAdjust="spacingAndGlyphs" textLength="145" x="450.75" y="169.1543">NotesWindowController</text><line style="stroke: #A80036; stroke-width: 1.5;" x1="346.5" x2="667.5" y1="181" y2="181"/><line style="stroke: #A80036; stroke-width: 1.5;" x1="346.5" x2="667.5" y1="189" y2="189"/><text fill="#000000" font-family="sans-serif" font-size="11" lengthAdjust="spacingAndGlyphs" textLength="311" x="351.5" y="203.2104">void initialize(URL location, ResourceBundle resources)</text><text fill="#000000" font-family="sans-serif" font-size="11" lengthAdjust="spacingAndGlyphs" textLength="166" x="351.5" y="216.0151">void updateList(Model model)</text><text fill="#000000" font-family="sans-serif" font-size="11" lengthAdjust="spacingAndGlyphs" textLength="217" x="351.5" y="228.8198">void update(Observable o, Object arg)</text><text fill="#000000" font-family="sans-serif" font-size="11" lengthAdjust="spacingAndGlyphs" textLength="122" x="351.5" y="241.6245">void ClickDescendre()</text><text fill="#000000" font-family="sans-serif" font-size="11" lengthAdjust="spacingAndGlyphs" textLength="100" x="351.5" y="254.4292">void ClickMonter()</text><text fill="#000000" font-family="sans-serif" font-size="11" lengthAdjust="spacingAndGlyphs" textLength="101" x="351.5" y="267.2339">void ClickEffacer()</text><text fill="#000000" font-family="sans-serif" font-size="11" lengthAdjust="spacingAndGlyphs" textLength="166" x="351.5" y="280.0386">void updateList(Model model)</text><!--class SplashScreen--><rect fill="#FEFECE" filter="url(#frja69qc7wv0f)" height="73.6094" id="SplashScreen" style="stroke: #A80036; stroke-width: 1.5;" width="248" x="62" y="181"/><ellipse cx="138.75" cy="197" fill="#ADD1B2" rx="11" ry="11" style="stroke: #A80036; stroke-width: 1.0;"/><path d="M141.0938,192.6719 L141.2656,192.75 C141.4844,192.4375 141.6875,192.3438 141.9844,192.3438 C142.2813,192.3438 142.5625,192.4844 142.7188,192.75 C142.8125,192.9063 142.8281,193.0313 142.8281,193.4688 L142.8281,194.8906 C142.8281,195.3125 142.7969,195.5 142.6875,195.6563 C142.5156,195.875 142.25,196.0156 141.9844,196.0156 C141.7656,196.0156 141.5313,195.9063 141.3906,195.7656 C141.25,195.6406 141.2188,195.5156 141.1563,195.1094 C141.0625,194.7031 140.8906,194.4844 140.4063,194.2031 C139.9375,193.9531 139.3281,193.7969 138.75,193.7969 C137.0156,193.7969 135.7656,195.1094 135.7656,196.8906 L135.7656,197.9844 C135.7656,199.6875 137.0625,200.7813 139.1094,200.7813 C139.875,200.7813 140.5625,200.6563 140.9844,200.3906 C141.1719,200.2969 141.1719,200.2969 141.625,199.8125 C141.8125,199.625 142.0156,199.5469 142.2344,199.5469 C142.7031,199.5469 143.0938,199.9375 143.0938,200.3906 C143.0938,200.7813 142.7656,201.2344 142.1875,201.6406 C141.4375,202.1875 140.2813,202.4844 139.0625,202.4844 C136.1719,202.4844 134.0625,200.5938 134.0625,198.0156 L134.0625,196.8906 C134.0625,194.1719 136.0625,192.0938 138.6875,192.0938 C139.5625,192.0938 140.1563,192.2344 141.0938,192.6719 Z "/><text fill="#000000" font-family="sans-serif" font-size="12" lengthAdjust="spacingAndGlyphs" textLength="86" x="159.25" y="201.1543">SplashScreen</text><line style="stroke: #A80036; stroke-width: 1.5;" x1="63" x2="309" y1="213" y2="213"/><line style="stroke: #A80036; stroke-width: 1.5;" x1="63" x2="309" y1="221" y2="221"/><text fill="#000000" font-family="sans-serif" font-size="11" lengthAdjust="spacingAndGlyphs" textLength="207" x="68" y="235.2104">void setMain(ArezzoMain arezzoMain)</text><text fill="#000000" font-family="sans-serif" font-size="11" lengthAdjust="spacingAndGlyphs" textLength="236" x="68" y="248.0151">void initialize(URL url, ResourceBundle rb)</text><!--class Model--><rect fill="#FEFECE" filter="url(#frja69qc7wv0f)" height="48" id="Model" style="stroke: #A80036; stroke-width: 1.5;" width="69" x="1816.5" y="362"/><ellipse cx="1831.5" cy="378" fill="#ADD1B2" rx="11" ry="11" style="stroke: #A80036; stroke-width: 1.0;"/><path d="M1833.8438,373.6719 L1834.0156,373.75 C1834.2344,373.4375 1834.4375,373.3438 1834.7344,373.3438 C1835.0313,373.3438 1835.3125,373.4844 1835.4688,373.75 C1835.5625,373.9063 1835.5781,374.0313 1835.5781,374.4688 L1835.5781,375.8906 C1835.5781,376.3125 1835.5469,376.5 1835.4375,376.6563 C1835.2656,376.875 1835,377.0156 1834.7344,377.0156 C1834.5156,377.0156 1834.2813,376.9063 1834.1406,376.7656 C1834,376.6406 1833.9688,376.5156 1833.9063,376.1094 C1833.8125,375.7031 1833.6406,375.4844 1833.1563,375.2031 C1832.6875,374.9531 1832.0781,374.7969 1831.5,374.7969 C1829.7656,374.7969 1828.5156,376.1094 1828.5156,377.8906 L1828.5156,378.9844 C1828.5156,380.6875 1829.8125,381.7813 1831.8594,381.7813 C1832.625,381.7813 1833.3125,381.6563 1833.7344,381.3906 C1833.9219,381.2969 1833.9219,381.2969 1834.375,380.8125 C1834.5625,380.625 1834.7656,380.5469 1834.9844,380.5469 C1835.4531,380.5469 1835.8438,380.9375 1835.8438,381.3906 C1835.8438,381.7813 1835.5156,382.2344 1834.9375,382.6406 C1834.1875,383.1875 1833.0313,383.4844 1831.8125,383.4844 C1828.9219,383.4844 1826.8125,381.5938 1826.8125,379.0156 L1826.8125,377.8906 C1826.8125,375.1719 1828.8125,373.0938 1831.4375,373.0938 C1832.3125,373.0938 1832.9063,373.2344 1833.8438,373.6719 Z "/><text fill="#000000" font-family="sans-serif" font-size="12" lengthAdjust="spacingAndGlyphs" textLength="37" x="1845.5" y="382.1543">Model</text><line style="stroke: #A80036; stroke-width: 1.5;" x1="1817.5" x2="1884.5" y1="394" y2="394"/><line style="stroke: #A80036; stroke-width: 1.5;" x1="1817.5" x2="1884.5" y1="402" y2="402"/><!--class Observer--><rect fill="#FEFECE" filter="url(#frja69qc7wv0f)" height="48" id="Observer" style="stroke: #A80036; stroke-width: 1.5;" width="88" x="1980" y="194"/><ellipse cx="1995" cy="210" fill="#ADD1B2" rx="11" ry="11" style="stroke: #A80036; stroke-width: 1.0;"/><path d="M1997.3438,205.6719 L1997.5156,205.75 C1997.7344,205.4375 1997.9375,205.3438 1998.2344,205.3438 C1998.5313,205.3438 1998.8125,205.4844 1998.9688,205.75 C1999.0625,205.9063 1999.0781,206.0313 1999.0781,206.4688 L1999.0781,207.8906 C1999.0781,208.3125 1999.0469,208.5 1998.9375,208.6563 C1998.7656,208.875 1998.5,209.0156 1998.2344,209.0156 C1998.0156,209.0156 1997.7813,208.9063 1997.6406,208.7656 C1997.5,208.6406 1997.4688,208.5156 1997.4063,208.1094 C1997.3125,207.7031 1997.1406,207.4844 1996.6563,207.2031 C1996.1875,206.9531 1995.5781,206.7969 1995,206.7969 C1993.2656,206.7969 1992.0156,208.1094 1992.0156,209.8906 L1992.0156,210.9844 C1992.0156,212.6875 1993.3125,213.7813 1995.3594,213.7813 C1996.125,213.7813 1996.8125,213.6563 1997.2344,213.3906 C1997.4219,213.2969 1997.4219,213.2969 1997.875,212.8125 C1998.0625,212.625 1998.2656,212.5469 1998.4844,212.5469 C1998.9531,212.5469 1999.3438,212.9375 1999.3438,213.3906 C1999.3438,213.7813 1999.0156,214.2344 1998.4375,214.6406 C1997.6875,215.1875 1996.5313,215.4844 1995.3125,215.4844 C1992.4219,215.4844 1990.3125,213.5938 1990.3125,211.0156 L1990.3125,209.8906 C1990.3125,207.1719 1992.3125,205.0938 1994.9375,205.0938 C1995.8125,205.0938 1996.4063,205.2344 1997.3438,205.6719 Z "/><text fill="#000000" font-family="sans-serif" font-size="12" lengthAdjust="spacingAndGlyphs" textLength="56" x="2009" y="214.1543">Observer</text><line style="stroke: #A80036; stroke-width: 1.5;" x1="1981" x2="2067" y1="226" y2="226"/><line style="stroke: #A80036; stroke-width: 1.5;" x1="1981" x2="2067" y1="234" y2="234"/><!--class Initializable--><rect fill="#FEFECE" filter="url(#frja69qc7wv0f)" height="48" id="Initializable" style="stroke: #A80036; stroke-width: 1.5;" width="100" x="2103" y="194"/><ellipse cx="2118" cy="210" fill="#ADD1B2" rx="11" ry="11" style="stroke: #A80036; stroke-width: 1.0;"/><path d="M2120.3438,205.6719 L2120.5156,205.75 C2120.7344,205.4375 2120.9375,205.3438 2121.2344,205.3438 C2121.5313,205.3438 2121.8125,205.4844 2121.9688,205.75 C2122.0625,205.9063 2122.0781,206.0313 2122.0781,206.4688 L2122.0781,207.8906 C2122.0781,208.3125 2122.0469,208.5 2121.9375,208.6563 C2121.7656,208.875 2121.5,209.0156 2121.2344,209.0156 C2121.0156,209.0156 2120.7813,208.9063 2120.6406,208.7656 C2120.5,208.6406 2120.4688,208.5156 2120.4063,208.1094 C2120.3125,207.7031 2120.1406,207.4844 2119.6563,207.2031 C2119.1875,206.9531 2118.5781,206.7969 2118,206.7969 C2116.2656,206.7969 2115.0156,208.1094 2115.0156,209.8906 L2115.0156,210.9844 C2115.0156,212.6875 2116.3125,213.7813 2118.3594,213.7813 C2119.125,213.7813 2119.8125,213.6563 2120.2344,213.3906 C2120.4219,213.2969 2120.4219,213.2969 2120.875,212.8125 C2121.0625,212.625 2121.2656,212.5469 2121.4844,212.5469 C2121.9531,212.5469 2122.3438,212.9375 2122.3438,213.3906 C2122.3438,213.7813 2122.0156,214.2344 2121.4375,214.6406 C2120.6875,215.1875 2119.5313,215.4844 2118.3125,215.4844 C2115.4219,215.4844 2113.3125,213.5938 2113.3125,211.0156 L2113.3125,209.8906 C2113.3125,207.1719 2115.3125,205.0938 2117.9375,205.0938 C2118.8125,205.0938 2119.4063,205.2344 2120.3438,205.6719 Z "/><text fill="#000000" font-family="sans-serif" font-size="12" lengthAdjust="spacingAndGlyphs" textLength="68" x="2132" y="214.1543">Initializable</text><line style="stroke: #A80036; stroke-width: 1.5;" x1="2104" x2="2202" y1="226" y2="226"/><line style="stroke: #A80036; stroke-width: 1.5;" x1="2104" x2="2202" y1="234" y2="234"/><!--link Controller to Model--><path d="M1851,255.02 C1851,287.44 1851,334.121 1851,361.826 " fill="none" id="Controller-Model" style="stroke: #A80036; stroke-width: 1.0;"/><text fill="#000000" font-family="sans-serif" font-size="13" lengthAdjust="spacingAndGlyphs" textLength="8" x="1841.975" y="350.7934">1</text><!--link Controller to Observer--><path d="M1924.32,218 C1935.98,218 1947.65,218 1959.31,218 " fill="none" id="Controller-Observer" style="stroke: #A80036; stroke-width: 1.0; stroke-dasharray: 7.0,7.0;"/><polygon fill="none" points="1959.61,211,1979.61,218,1959.61,225,1959.61,211" style="stroke: #A80036; stroke-width: 1.0;"/><!--link MenuController to Controller--><path d="M1742.63,218 C1747.66,218 1752.7,218 1757.73,218 " fill="none" id="MenuController-Controller" style="stroke: #A80036; stroke-width: 1.0;"/><polygon fill="none" points="1757.77,211,1777.77,218,1757.77,225,1757.77,211" style="stroke: #A80036; stroke-width: 1.0;"/><!--link MenuController to Initializable--><path d="M1632.12,148.704 C1667.82,106.483 1719.51,56.311 1778.5,33 C1838.43,9.314 2012.62,0.903 2068.5,33 C2118.48,61.705 2139.07,129.011 2147.44,174.027 " fill="none" id="MenuController-Initializable" style="stroke: #A80036; stroke-width: 1.0; stroke-dasharray: 7.0,7.0;"/><polygon fill="none" points="2154.35,172.927,2150.6,193.782,2140.53,175.139,2154.35,172.927" style="stroke: #A80036; stroke-width: 1.0;"/><!--link BottomController to Controller--><path d="M1273.79,148.712 C1309.27,106.494 1360.7,56.323 1419.5,33 C1486.22,6.534 1680.22,-2.677 1742.5,33 C1790.3,60.382 1819.09,117.908 1834.88,161.588 " fill="none" id="BottomController-Controller" style="stroke: #A80036; stroke-width: 1.0;"/><polygon fill="none" points="1841.61,159.637,1841.33,180.825,1828.33,164.089,1841.61,159.637" style="stroke: #A80036; stroke-width: 1.0;"/><!--link BottomController to Initializable--><path d="M1273.79,148.712 C1309.27,106.494 1360.7,56.323 1419.5,33 C1486.53,6.411 2005.97,-2.916 2068.5,33 C2118.48,61.705 2139.07,129.011 2147.44,174.027 " fill="none" id="BottomController-Initializable" style="stroke: #A80036; stroke-width: 1.0; stroke-dasharray: 7.0,7.0;"/><polygon fill="none" points="2154.35,172.927,2150.6,193.782,2140.53,175.139,2154.35,172.927" style="stroke: #A80036; stroke-width: 1.0;"/><!--link MiddleController to Controller--><path d="M894.906,174.885 C929.149,129.703 989.855,61.42 1061.5,33 C1131.84,5.1 1676.84,-4.609 1742.5,33 C1790.3,60.382 1819.09,117.908 1834.88,161.588 " fill="none" id="MiddleController-Controller" style="stroke: #A80036; stroke-width: 1.0;"/><polygon fill="none" points="1841.61,159.637,1841.33,180.825,1828.33,164.089,1841.61,159.637" style="stroke: #A80036; stroke-width: 1.0;"/><!--link MiddleController to Initializable--><path d="M894.906,174.885 C929.149,129.703 989.855,61.42 1061.5,33 C1113.5,12.372 2019.99,5.136 2068.5,33 C2118.48,61.705 2139.07,129.011 2147.44,174.027 " fill="none" id="MiddleController-Initializable" style="stroke: #A80036; stroke-width: 1.0; stroke-dasharray: 7.0,7.0;"/><polygon fill="none" points="2154.35,172.927,2150.6,193.782,2140.53,175.139,2154.35,172.927" style="stroke: #A80036; stroke-width: 1.0;"/><!--link NotesWindowController to Controller--><path d="M557.792,148.712 C593.273,106.494 644.703,56.323 703.5,33 C757.155,11.717 1692.41,4.31 1742.5,33 C1790.3,60.382 1819.09,117.908 1834.88,161.588 " fill="none" id="NotesWindowController-Controller" style="stroke: #A80036; stroke-width: 1.0;"/><polygon fill="none" points="1841.61,159.637,1841.33,180.825,1828.33,164.089,1841.61,159.637" style="stroke: #A80036; stroke-width: 1.0;"/><!--link NotesWindowController to Initializable--><path d="M557.792,148.712 C593.273,106.494 644.703,56.323 703.5,33 C773.99,5.039 2002.74,-4.77 2068.5,33 C2118.48,61.705 2139.07,129.011 2147.44,174.027 " fill="none" id="NotesWindowController-Initializable" style="stroke: #A80036; stroke-width: 1.0; stroke-dasharray: 7.0,7.0;"/><polygon fill="none" points="2154.35,172.927,2150.6,193.782,2140.53,175.139,2154.35,172.927" style="stroke: #A80036; stroke-width: 1.0;"/><!--link SplashScreen to Initializable--><path d="M205.05,180.74 C230.269,136.026 279.382,63.295 345.5,33 C389.011,13.064 2027,9.162 2068.5,33 C2118.48,61.705 2139.07,129.011 2147.44,174.027 " fill="none" id="SplashScreen-Initializable" style="stroke: #A80036; stroke-width: 1.0; stroke-dasharray: 7.0,7.0;"/><polygon fill="none" points="2154.35,172.927,2150.6,193.782,2140.53,175.139,2154.35,172.927" style="stroke: #A80036; stroke-width: 1.0;"/><!--
@startuml
package Arezzo
{
	package Controllers
	{
		abstract Controller
		{
			Controller()
			void setModel(Model m)
		}
		
		class MenuController
		{
			void initialize(URL location, ResourceBundle resources)
			void update(Observable o, Object arg)
			void OnTransposerClick()
			void Save()
			void Open()
			void Quit()
			void OnChangeName()
		}
		
		class BottomController
		{
			void initialize(URL location, ResourceBundle resources)
			void update(Observable o, Object arg)
			void OnDureesChange()
			void OnNoteClick(Notes note)
			void OnSilenceClick()
			void OnPlayBack()
			void OnTempoScroll()
		}
		
		class MiddleController
		{
			void initialize(URL location, ResourceBundle resources)
			void update(Observable o, Object arg)
			void OnNotesClick()
		}
		
		class NotesWindowController
		{
			void initialize(URL location, ResourceBundle resources)
			void updateList(Model model)
			void update(Observable o, Object arg)
			void ClickDescendre()
			void ClickMonter() 
			void ClickEffacer()
			void updateList(Model model)			
		}
		
		class SplashScreen
		{
			void setMain(ArezzoMain arezzoMain)
			void initialize(URL url, ResourceBundle rb)
		}
	}

	package Backend
	{
		class Model
	}
}


Controller - -"1" Model
Controller .|> Observer

MenuController -|> Controller
MenuController .|> Initializable

BottomController -|> Controller
BottomController .|> Initializable

MiddleController -|> Controller
MiddleController .|> Initializable

NotesWindowController -|> Controller
NotesWindowController .|> Initializable

SplashScreen .|> Initializable
@enduml

PlantUML version 1.2019.05(Sat Apr 20 16:45:36 UTC 2019)
(GPL source distribution)
Java Runtime: Java(TM) SE Runtime Environment
JVM: Java HotSpot(TM) 64-Bit Server VM
Java Version: 1.7.0_25-b15
Operating System: Linux
Default Encoding: UTF-8
Language: en
Country: US
--></g></svg>