<?xml version="1.0" encoding="UTF-8" standalone="no"?><svg xmlns="http://www.w3.org/2000/svg" xmlns:xlink="http://www.w3.org/1999/xlink" contentScriptType="application/ecmascript" contentStyleType="text/css" height="186px" preserveAspectRatio="none" style="width:367px;height:186px;" version="1.1" viewBox="0 0 367 186" width="367px" zoomAndPan="magnify"><defs><filter height="300%" id="fu8holh2kfcel" width="300%" x="-1" y="-1"><feGaussianBlur result="blurOut" stdDeviation="2.0"/><feColorMatrix in="blurOut" result="blurOut2" type="matrix" values="0 0 0 0 0 0 0 0 0 0 0 0 0 0 0 0 0 0 .4 0"/><feOffset dx="4.0" dy="4.0" in="blurOut2" result="blurOut3"/><feBlend in="SourceGraphic" in2="blurOut3" mode="normal"/></filter></defs><g><!--cluster Arezzo--><polygon fill="#FFFFFF" filter="url(#fu8holh2kfcel)" points="22,24,84,24,91,46.2969,236,46.2969,236,174,22,174,22,24" style="stroke: #000000; stroke-width: 1.5;"/><line style="stroke: #000000; stroke-width: 1.5;" x1="22" x2="91" y1="46.2969" y2="46.2969"/><text fill="#000000" font-family="sans-serif" font-size="14" font-weight="bold" lengthAdjust="spacingAndGlyphs" textLength="56" x="26" y="38.9951">Arezzo</text><!--class ArezzoMain--><rect fill="#FEFECE" filter="url(#fu8holh2kfcel)" height="99.2188" id="ArezzoMain" style="stroke: #A80036; stroke-width: 1.5;" width="182" x="38" y="59"/><ellipse cx="90.75" cy="75" fill="#ADD1B2" rx="11" ry="11" style="stroke: #A80036; stroke-width: 1.0;"/><path d="M93.0938,70.6719 L93.2656,70.75 C93.4844,70.4375 93.6875,70.3438 93.9844,70.3438 C94.2813,70.3438 94.5625,70.4844 94.7188,70.75 C94.8125,70.9063 94.8281,71.0313 94.8281,71.4688 L94.8281,72.8906 C94.8281,73.3125 94.7969,73.5 94.6875,73.6563 C94.5156,73.875 94.25,74.0156 93.9844,74.0156 C93.7656,74.0156 93.5313,73.9063 93.3906,73.7656 C93.25,73.6406 93.2188,73.5156 93.1563,73.1094 C93.0625,72.7031 92.8906,72.4844 92.4063,72.2031 C91.9375,71.9531 91.3281,71.7969 90.75,71.7969 C89.0156,71.7969 87.7656,73.1094 87.7656,74.8906 L87.7656,75.9844 C87.7656,77.6875 89.0625,78.7813 91.1094,78.7813 C91.875,78.7813 92.5625,78.6563 92.9844,78.3906 C93.1719,78.2969 93.1719,78.2969 93.625,77.8125 C93.8125,77.625 94.0156,77.5469 94.2344,77.5469 C94.7031,77.5469 95.0938,77.9375 95.0938,78.3906 C95.0938,78.7813 94.7656,79.2344 94.1875,79.6406 C93.4375,80.1875 92.2813,80.4844 91.0625,80.4844 C88.1719,80.4844 86.0625,78.5938 86.0625,76.0156 L86.0625,74.8906 C86.0625,72.1719 88.0625,70.0938 90.6875,70.0938 C91.5625,70.0938 92.1563,70.2344 93.0938,70.6719 Z "/><text fill="#000000" font-family="sans-serif" font-size="12" lengthAdjust="spacingAndGlyphs" textLength="68" x="111.25" y="79.1543">ArezzoMain</text><line style="stroke: #A80036; stroke-width: 1.5;" x1="39" x2="219" y1="91" y2="91"/><line style="stroke: #A80036; stroke-width: 1.5;" x1="39" x2="219" y1="99" y2="99"/><text fill="#000000" font-family="sans-serif" font-size="11" lengthAdjust="spacingAndGlyphs" textLength="131" x="44" y="113.2104">void start(Stage stage)</text><text fill="#000000" font-family="sans-serif" font-size="11" lengthAdjust="spacingAndGlyphs" textLength="60" x="44" y="126.0151">void stop()</text><text fill="#000000" font-family="sans-serif" font-size="11" lengthAdjust="spacingAndGlyphs" textLength="88" x="44" y="138.8198">void LoadMain()</text><text fill="#000000" font-family="sans-serif" font-size="11" lengthAdjust="spacingAndGlyphs" textLength="170" x="44" y="151.6245">static void main(String[] args)</text><!--class Application--><rect fill="#FEFECE" filter="url(#fu8holh2kfcel)" height="48" id="Application" style="stroke: #A80036; stroke-width: 1.5;" width="101" x="255.5" y="84.5"/><ellipse cx="270.5" cy="100.5" fill="#ADD1B2" rx="11" ry="11" style="stroke: #A80036; stroke-width: 1.0;"/><path d="M272.8438,96.1719 L273.0156,96.25 C273.2344,95.9375 273.4375,95.8438 273.7344,95.8438 C274.0313,95.8438 274.3125,95.9844 274.4688,96.25 C274.5625,96.4063 274.5781,96.5313 274.5781,96.9688 L274.5781,98.3906 C274.5781,98.8125 274.5469,99 274.4375,99.1563 C274.2656,99.375 274,99.5156 273.7344,99.5156 C273.5156,99.5156 273.2813,99.4063 273.1406,99.2656 C273,99.1406 272.9688,99.0156 272.9063,98.6094 C272.8125,98.2031 272.6406,97.9844 272.1563,97.7031 C271.6875,97.4531 271.0781,97.2969 270.5,97.2969 C268.7656,97.2969 267.5156,98.6094 267.5156,100.3906 L267.5156,101.4844 C267.5156,103.1875 268.8125,104.2813 270.8594,104.2813 C271.625,104.2813 272.3125,104.1563 272.7344,103.8906 C272.9219,103.7969 272.9219,103.7969 273.375,103.3125 C273.5625,103.125 273.7656,103.0469 273.9844,103.0469 C274.4531,103.0469 274.8438,103.4375 274.8438,103.8906 C274.8438,104.2813 274.5156,104.7344 273.9375,105.1406 C273.1875,105.6875 272.0313,105.9844 270.8125,105.9844 C267.9219,105.9844 265.8125,104.0938 265.8125,101.5156 L265.8125,100.3906 C265.8125,97.6719 267.8125,95.5938 270.4375,95.5938 C271.3125,95.5938 271.9063,95.7344 272.8438,96.1719 Z "/><text fill="#000000" font-family="sans-serif" font-size="12" lengthAdjust="spacingAndGlyphs" textLength="69" x="284.5" y="104.6543">Application</text><line style="stroke: #A80036; stroke-width: 1.5;" x1="256.5" x2="355.5" y1="116.5" y2="116.5"/><line style="stroke: #A80036; stroke-width: 1.5;" x1="256.5" x2="355.5" y1="124.5" y2="124.5"/><!--link ArezzoMain to Application--><path d="M220.266,108.5 C225.302,108.5 230.339,108.5 235.375,108.5 " fill="none" id="ArezzoMain-Application" style="stroke: #A80036; stroke-width: 1.0;"/><polygon fill="none" points="235.43,101.4999,255.43,108.5,235.43,115.4999,235.43,101.4999" style="stroke: #A80036; stroke-width: 1.0;"/><!--
@startuml
package Arezzo
{
	class ArezzoMain
	{
		void start(Stage stage)
		void stop()
		void LoadMain()
		static void main(String[] args)
	}
}

ArezzoMain -|> Application
@enduml

PlantUML version 1.2019.05(Sat Apr 20 16:45:36 UTC 2019)
(GPL source distribution)
Java Runtime: Java(TM) SE Runtime Environment
JVM: Java HotSpot(TM) 64-Bit Server VM
Java Version: 1.7.0_25-b15
Operating System: Linux
Default Encoding: UTF-8
Language: en
Country: US
--></g></svg>