<?xml version="1.0" encoding="UTF-8" standalone="no"?><svg xmlns="http://www.w3.org/2000/svg" xmlns:xlink="http://www.w3.org/1999/xlink" contentScriptType="application/ecmascript" contentStyleType="text/css" height="1008px" preserveAspectRatio="none" style="width:2091px;height:1008px;" version="1.1" viewBox="0 0 2091 1008" width="2091px" zoomAndPan="magnify"><defs><filter height="300%" id="f1p5nk9n68qolh" width="300%" x="-1" y="-1"><feGaussianBlur result="blurOut" stdDeviation="2.0"/><feColorMatrix in="blurOut" result="blurOut2" type="matrix" values="0 0 0 0 0 0 0 0 0 0 0 0 0 0 0 0 0 0 .4 0"/><feOffset dx="4.0" dy="4.0" in="blurOut2" result="blurOut3"/><feBlend in="SourceGraphic" in2="blurOut3" mode="normal"/></filter></defs><g><!--cluster Arezzo--><polygon fill="#FFFFFF" filter="url(#f1p5nk9n68qolh)" points="22,71,84,71,91,93.2969,1834,93.2969,1834,996,22,996,22,71" style="stroke: #000000; stroke-width: 1.5;"/><line style="stroke: #000000; stroke-width: 1.5;" x1="22" x2="91" y1="93.2969" y2="93.2969"/><text fill="#000000" font-family="sans-serif" font-size="14" font-weight="bold" lengthAdjust="spacingAndGlyphs" textLength="56" x="26" y="85.9951">Arezzo</text><!--cluster Backend--><polygon fill="#FFFFFF" filter="url(#f1p5nk9n68qolh)" points="46,114,119,114,126,136.2969,1810,136.2969,1810,972,46,972,46,114" style="stroke: #000000; stroke-width: 1.5;"/><line style="stroke: #000000; stroke-width: 1.5;" x1="46" x2="126" y1="136.2969" y2="136.2969"/><text fill="#000000" font-family="sans-serif" font-size="14" font-weight="bold" lengthAdjust="spacingAndGlyphs" textLength="67" x="50" y="128.9951">Backend</text><!--cluster Notation--><polygon fill="#FFFFFF" filter="url(#f1p5nk9n68qolh)" points="1161,664,1233,664,1240,686.2969,1786,686.2969,1786,948,1161,948,1161,664" style="stroke: #000000; stroke-width: 1.5;"/><line style="stroke: #000000; stroke-width: 1.5;" x1="1161" x2="1240" y1="686.2969" y2="686.2969"/><text fill="#000000" font-family="sans-serif" font-size="14" font-weight="bold" lengthAdjust="spacingAndGlyphs" textLength="66" x="1165" y="678.9951">Notation</text><!--cluster Notes--><polygon fill="#FFFFFF" filter="url(#f1p5nk9n68qolh)" points="78,451,130,451,137,473.2969,1129,473.2969,1129,731.36,78,731.36,78,451" style="stroke: #000000; stroke-width: 1.5;"/><line style="stroke: #000000; stroke-width: 1.5;" x1="78" x2="137" y1="473.2969" y2="473.2969"/><text fill="#000000" font-family="sans-serif" font-size="14" font-weight="bold" lengthAdjust="spacingAndGlyphs" textLength="46" x="82" y="465.9951">Notes</text><!--class Melodie--><rect fill="#FEFECE" filter="url(#f1p5nk9n68qolh)" height="278.4844" id="Melodie" style="stroke: #A80036; stroke-width: 1.5;" width="227" x="1229.5" y="149"/><ellipse cx="1314.75" cy="165" fill="#ADD1B2" rx="11" ry="11" style="stroke: #A80036; stroke-width: 1.0;"/><path d="M1317.0938,160.6719 L1317.2656,160.75 C1317.4844,160.4375 1317.6875,160.3438 1317.9844,160.3438 C1318.2813,160.3438 1318.5625,160.4844 1318.7188,160.75 C1318.8125,160.9063 1318.8281,161.0313 1318.8281,161.4688 L1318.8281,162.8906 C1318.8281,163.3125 1318.7969,163.5 1318.6875,163.6563 C1318.5156,163.875 1318.25,164.0156 1317.9844,164.0156 C1317.7656,164.0156 1317.5313,163.9063 1317.3906,163.7656 C1317.25,163.6406 1317.2188,163.5156 1317.1563,163.1094 C1317.0625,162.7031 1316.8906,162.4844 1316.4063,162.2031 C1315.9375,161.9531 1315.3281,161.7969 1314.75,161.7969 C1313.0156,161.7969 1311.7656,163.1094 1311.7656,164.8906 L1311.7656,165.9844 C1311.7656,167.6875 1313.0625,168.7813 1315.1094,168.7813 C1315.875,168.7813 1316.5625,168.6563 1316.9844,168.3906 C1317.1719,168.2969 1317.1719,168.2969 1317.625,167.8125 C1317.8125,167.625 1318.0156,167.5469 1318.2344,167.5469 C1318.7031,167.5469 1319.0938,167.9375 1319.0938,168.3906 C1319.0938,168.7813 1318.7656,169.2344 1318.1875,169.6406 C1317.4375,170.1875 1316.2813,170.4844 1315.0625,170.4844 C1312.1719,170.4844 1310.0625,168.5938 1310.0625,166.0156 L1310.0625,164.8906 C1310.0625,162.1719 1312.0625,160.0938 1314.6875,160.0938 C1315.5625,160.0938 1316.1563,160.2344 1317.0938,160.6719 Z "/><text fill="#000000" font-family="sans-serif" font-size="12" lengthAdjust="spacingAndGlyphs" textLength="48" x="1335.25" y="169.1543">Melodie</text><line style="stroke: #A80036; stroke-width: 1.5;" x1="1230.5" x2="1455.5" y1="181" y2="181"/><text fill="#000000" font-family="sans-serif" font-size="11" lengthAdjust="spacingAndGlyphs" textLength="65" x="1235.5" y="195.2104">String titre;</text><text fill="#000000" font-family="sans-serif" font-size="11" lengthAdjust="spacingAndGlyphs" textLength="157" x="1235.5" y="208.0151">transient Partition partition;</text><line style="stroke: #A80036; stroke-width: 1.5;" x1="1230.5" x2="1455.5" y1="214.6094" y2="214.6094"/><text fill="#000000" font-family="sans-serif" font-size="11" lengthAdjust="spacingAndGlyphs" textLength="112" x="1235.5" y="228.8198">Melodie(String titre)</text><text fill="#000000" font-family="sans-serif" font-size="11" lengthAdjust="spacingAndGlyphs" textLength="51" x="1235.5" y="241.6245">Melodie()</text><text fill="#000000" font-family="sans-serif" font-size="11" lengthAdjust="spacingAndGlyphs" textLength="143" x="1235.5" y="254.4292">void ajouter(BasicNote a)</text><text fill="#000000" font-family="sans-serif" font-size="11" lengthAdjust="spacingAndGlyphs" textLength="142" x="1235.5" y="267.2339">String constructMelodie()</text><text fill="#000000" font-family="sans-serif" font-size="11" lengthAdjust="spacingAndGlyphs" textLength="101" x="1235.5" y="280.0386">void PlayCurrent()</text><text fill="#000000" font-family="sans-serif" font-size="11" lengthAdjust="spacingAndGlyphs" textLength="168" x="1235.5" y="292.8433">void ajouterSilence(Silence s)</text><text fill="#000000" font-family="sans-serif" font-size="11" lengthAdjust="spacingAndGlyphs" textLength="190" x="1235.5" y="305.6479">void removeNote(BasicNote note)</text><text fill="#000000" font-family="sans-serif" font-size="11" lengthAdjust="spacingAndGlyphs" textLength="196" x="1235.5" y="318.4526">void monterLeTon(BasicNote note)</text><text fill="#000000" font-family="sans-serif" font-size="11" lengthAdjust="spacingAndGlyphs" textLength="215" x="1235.5" y="331.2573">void descendreLeTon(BasicNote note)</text><text fill="#000000" font-family="sans-serif" font-size="11" lengthAdjust="spacingAndGlyphs" textLength="186" x="1235.5" y="344.062">void setInstrument(String instru)</text><text fill="#000000" font-family="sans-serif" font-size="11" lengthAdjust="spacingAndGlyphs" textLength="143" x="1235.5" y="356.8667">void setVolume(double v)</text><text fill="#000000" font-family="sans-serif" font-size="11" lengthAdjust="spacingAndGlyphs" textLength="138" x="1235.5" y="369.6714">void setTempo(double t)</text><text fill="#000000" font-family="sans-serif" font-size="11" lengthAdjust="spacingAndGlyphs" textLength="154" x="1235.5" y="382.4761">String getMelodieNotation()</text><text fill="#000000" font-family="sans-serif" font-size="11" lengthAdjust="spacingAndGlyphs" textLength="171" x="1235.5" y="395.2808">Iterator&lt;BasicNote&gt; iterator()</text><text fill="#000000" font-family="sans-serif" font-size="11" lengthAdjust="spacingAndGlyphs" textLength="140" x="1235.5" y="408.0854">void setTitre(String titre)</text><text fill="#000000" font-family="sans-serif" font-size="11" lengthAdjust="spacingAndGlyphs" textLength="205" x="1235.5" y="420.8901">void transposer(int transposeValue)</text><!--class Model--><rect fill="#FEFECE" filter="url(#f1p5nk9n68qolh)" height="188.8516" id="Model" style="stroke: #A80036; stroke-width: 1.5;" width="302" x="1492" y="193.5"/><ellipse cx="1620.25" cy="209.5" fill="#ADD1B2" rx="11" ry="11" style="stroke: #A80036; stroke-width: 1.0;"/><path d="M1622.5938,205.1719 L1622.7656,205.25 C1622.9844,204.9375 1623.1875,204.8438 1623.4844,204.8438 C1623.7813,204.8438 1624.0625,204.9844 1624.2188,205.25 C1624.3125,205.4063 1624.3281,205.5313 1624.3281,205.9688 L1624.3281,207.3906 C1624.3281,207.8125 1624.2969,208 1624.1875,208.1563 C1624.0156,208.375 1623.75,208.5156 1623.4844,208.5156 C1623.2656,208.5156 1623.0313,208.4063 1622.8906,208.2656 C1622.75,208.1406 1622.7188,208.0156 1622.6563,207.6094 C1622.5625,207.2031 1622.3906,206.9844 1621.9063,206.7031 C1621.4375,206.4531 1620.8281,206.2969 1620.25,206.2969 C1618.5156,206.2969 1617.2656,207.6094 1617.2656,209.3906 L1617.2656,210.4844 C1617.2656,212.1875 1618.5625,213.2813 1620.6094,213.2813 C1621.375,213.2813 1622.0625,213.1563 1622.4844,212.8906 C1622.6719,212.7969 1622.6719,212.7969 1623.125,212.3125 C1623.3125,212.125 1623.5156,212.0469 1623.7344,212.0469 C1624.2031,212.0469 1624.5938,212.4375 1624.5938,212.8906 C1624.5938,213.2813 1624.2656,213.7344 1623.6875,214.1406 C1622.9375,214.6875 1621.7813,214.9844 1620.5625,214.9844 C1617.6719,214.9844 1615.5625,213.0938 1615.5625,210.5156 L1615.5625,209.3906 C1615.5625,206.6719 1617.5625,204.5938 1620.1875,204.5938 C1621.0625,204.5938 1621.6563,204.7344 1622.5938,205.1719 Z "/><text fill="#000000" font-family="sans-serif" font-size="12" lengthAdjust="spacingAndGlyphs" textLength="37" x="1640.75" y="213.6543">Model</text><line style="stroke: #A80036; stroke-width: 1.5;" x1="1493" x2="1793" y1="225.5" y2="225.5"/><line style="stroke: #A80036; stroke-width: 1.5;" x1="1493" x2="1793" y1="233.5" y2="233.5"/><text fill="#000000" font-family="sans-serif" font-size="11" lengthAdjust="spacingAndGlyphs" textLength="171" x="1498" y="247.7104">Model(Controller... observers)</text><text fill="#000000" font-family="sans-serif" font-size="11" lengthAdjust="spacingAndGlyphs" textLength="151" x="1498" y="260.5151">setNote(Notation.Notes nt)</text><text fill="#000000" font-family="sans-serif" font-size="11" lengthAdjust="spacingAndGlyphs" textLength="209" x="1498" y="273.3198">setInstru(Notation.Instrument instru)</text><text fill="#000000" font-family="sans-serif" font-size="11" lengthAdjust="spacingAndGlyphs" textLength="116" x="1498" y="286.1245">void ajouterSilence()</text><text fill="#000000" font-family="sans-serif" font-size="11" lengthAdjust="spacingAndGlyphs" textLength="190" x="1498" y="298.9292">void removeNote(BasicNote note)</text><text fill="#000000" font-family="sans-serif" font-size="11" lengthAdjust="spacingAndGlyphs" textLength="196" x="1498" y="311.7339">void monterLeTon(BasicNote note)</text><text fill="#000000" font-family="sans-serif" font-size="11" lengthAdjust="spacingAndGlyphs" textLength="215" x="1498" y="324.5386">void descendreLeTon(BasicNote note)</text><text fill="#000000" font-family="sans-serif" font-size="11" lengthAdjust="spacingAndGlyphs" textLength="147" x="1498" y="337.3433">void setName(String titre)</text><text fill="#000000" font-family="sans-serif" font-size="11" lengthAdjust="spacingAndGlyphs" textLength="65" x="1498" y="350.1479">void reset()</text><text fill="#000000" font-family="sans-serif" font-size="11" lengthAdjust="spacingAndGlyphs" textLength="290" x="1498" y="362.9526">void setMelodieNotes(ArrayList&lt;BasicNote&gt; notes)</text><text fill="#000000" font-family="sans-serif" font-size="11" lengthAdjust="spacingAndGlyphs" textLength="243" x="1498" y="375.7573">void transposeMelodie(int transposeValue)</text><!--class TypeNote--><rect fill="#FEFECE" filter="url(#f1p5nk9n68qolh)" height="48" id="TypeNote" style="stroke: #A80036; stroke-width: 1.5;" width="91" x="1296.5" y="699"/><ellipse cx="1311.5" cy="715" fill="#EB937F" rx="11" ry="11" style="stroke: #A80036; stroke-width: 1.0;"/><path d="M1309.7969,715.875 L1309.7969,718.2969 L1314.1563,718.2969 L1314.1563,717.4219 C1314.1563,716.9375 1314.1875,716.7969 1314.2969,716.6406 C1314.4688,716.3906 1314.7344,716.2813 1315,716.2813 C1315.2813,716.2813 1315.5625,716.4375 1315.7344,716.6875 C1315.8125,716.8438 1315.8438,716.9844 1315.8438,717.4219 L1315.8438,720 L1307.8438,720 C1307.4531,720 1307.2188,719.9531 1307.0781,719.8281 C1306.8594,719.6719 1306.7188,719.4219 1306.7188,719.1563 C1306.7188,718.8594 1306.875,718.5938 1307.125,718.4219 C1307.2813,718.3125 1307.4375,718.2969 1307.8438,718.2969 L1308.0938,718.2969 L1308.0938,711.7813 L1307.8438,711.7813 C1307.4219,711.7813 1307.2344,711.75 1307.0781,711.6406 C1306.8594,711.4688 1306.7188,711.2188 1306.7188,710.9375 C1306.7188,710.6563 1306.875,710.3594 1307.125,710.2031 C1307.2813,710.1094 1307.4063,710.0938 1307.8438,710.0938 L1315.4688,710.0938 L1315.4688,712.6406 C1315.4688,713.1094 1315.4375,713.25 1315.3281,713.4219 C1315.1563,713.6406 1314.8906,713.7813 1314.625,713.7813 C1314.3438,713.7813 1314.0625,713.625 1313.8906,713.375 C1313.8125,713.2188 1313.7813,713.0469 1313.7813,712.6406 L1313.7813,711.7813 L1309.7969,711.7813 L1309.7969,714.1875 L1311.25,714.1875 L1311.25,714.0625 C1311.25,713.6094 1311.2813,713.4531 1311.3906,713.2813 C1311.5625,713.0625 1311.8281,712.9219 1312.0781,712.9219 C1312.5313,712.9219 1312.8438,713.2344 1312.9063,713.7031 C1312.9219,713.8594 1312.9219,713.9063 1312.9219,714.0625 L1312.9219,715.9844 C1312.9219,716.4375 1312.8906,716.5938 1312.7656,716.75 C1312.6094,716.9688 1312.3438,717.1094 1312.0938,717.1094 C1311.7969,717.1094 1311.5156,716.9531 1311.3594,716.7031 C1311.2813,716.5469 1311.25,716.3906 1311.25,715.9844 L1311.25,715.875 Z "/><text fill="#000000" font-family="sans-serif" font-size="12" lengthAdjust="spacingAndGlyphs" textLength="59" x="1325.5" y="719.1543">TypeNote</text><line style="stroke: #A80036; stroke-width: 1.5;" x1="1297.5" x2="1386.5" y1="731" y2="731"/><line style="stroke: #A80036; stroke-width: 1.5;" x1="1297.5" x2="1386.5" y1="739" y2="739"/><!--class Silences--><rect fill="#FEFECE" filter="url(#f1p5nk9n68qolh)" height="48" id="Silences" style="stroke: #A80036; stroke-width: 1.5;" width="84" x="1177" y="699"/><ellipse cx="1192" cy="715" fill="#EB937F" rx="11" ry="11" style="stroke: #A80036; stroke-width: 1.0;"/><path d="M1190.2969,715.875 L1190.2969,718.2969 L1194.6563,718.2969 L1194.6563,717.4219 C1194.6563,716.9375 1194.6875,716.7969 1194.7969,716.6406 C1194.9688,716.3906 1195.2344,716.2813 1195.5,716.2813 C1195.7813,716.2813 1196.0625,716.4375 1196.2344,716.6875 C1196.3125,716.8438 1196.3438,716.9844 1196.3438,717.4219 L1196.3438,720 L1188.3438,720 C1187.9531,720 1187.7188,719.9531 1187.5781,719.8281 C1187.3594,719.6719 1187.2188,719.4219 1187.2188,719.1563 C1187.2188,718.8594 1187.375,718.5938 1187.625,718.4219 C1187.7813,718.3125 1187.9375,718.2969 1188.3438,718.2969 L1188.5938,718.2969 L1188.5938,711.7813 L1188.3438,711.7813 C1187.9219,711.7813 1187.7344,711.75 1187.5781,711.6406 C1187.3594,711.4688 1187.2188,711.2188 1187.2188,710.9375 C1187.2188,710.6563 1187.375,710.3594 1187.625,710.2031 C1187.7813,710.1094 1187.9063,710.0938 1188.3438,710.0938 L1195.9688,710.0938 L1195.9688,712.6406 C1195.9688,713.1094 1195.9375,713.25 1195.8281,713.4219 C1195.6563,713.6406 1195.3906,713.7813 1195.125,713.7813 C1194.8438,713.7813 1194.5625,713.625 1194.3906,713.375 C1194.3125,713.2188 1194.2813,713.0469 1194.2813,712.6406 L1194.2813,711.7813 L1190.2969,711.7813 L1190.2969,714.1875 L1191.75,714.1875 L1191.75,714.0625 C1191.75,713.6094 1191.7813,713.4531 1191.8906,713.2813 C1192.0625,713.0625 1192.3281,712.9219 1192.5781,712.9219 C1193.0313,712.9219 1193.3438,713.2344 1193.4063,713.7031 C1193.4219,713.8594 1193.4219,713.9063 1193.4219,714.0625 L1193.4219,715.9844 C1193.4219,716.4375 1193.3906,716.5938 1193.2656,716.75 C1193.1094,716.9688 1192.8438,717.1094 1192.5938,717.1094 C1192.2969,717.1094 1192.0156,716.9531 1191.8594,716.7031 C1191.7813,716.5469 1191.75,716.3906 1191.75,715.9844 L1191.75,715.875 Z "/><text fill="#000000" font-family="sans-serif" font-size="12" lengthAdjust="spacingAndGlyphs" textLength="52" x="1206" y="719.1543">Silences</text><line style="stroke: #A80036; stroke-width: 1.5;" x1="1178" x2="1260" y1="731" y2="731"/><line style="stroke: #A80036; stroke-width: 1.5;" x1="1178" x2="1260" y1="739" y2="739"/><!--class Durees--><rect fill="#FEFECE" filter="url(#f1p5nk9n68qolh)" height="48" id="Durees" style="stroke: #A80036; stroke-width: 1.5;" width="77" x="1422.5" y="699"/><ellipse cx="1437.5" cy="715" fill="#EB937F" rx="11" ry="11" style="stroke: #A80036; stroke-width: 1.0;"/><path d="M1435.7969,715.875 L1435.7969,718.2969 L1440.1563,718.2969 L1440.1563,717.4219 C1440.1563,716.9375 1440.1875,716.7969 1440.2969,716.6406 C1440.4688,716.3906 1440.7344,716.2813 1441,716.2813 C1441.2813,716.2813 1441.5625,716.4375 1441.7344,716.6875 C1441.8125,716.8438 1441.8438,716.9844 1441.8438,717.4219 L1441.8438,720 L1433.8438,720 C1433.4531,720 1433.2188,719.9531 1433.0781,719.8281 C1432.8594,719.6719 1432.7188,719.4219 1432.7188,719.1563 C1432.7188,718.8594 1432.875,718.5938 1433.125,718.4219 C1433.2813,718.3125 1433.4375,718.2969 1433.8438,718.2969 L1434.0938,718.2969 L1434.0938,711.7813 L1433.8438,711.7813 C1433.4219,711.7813 1433.2344,711.75 1433.0781,711.6406 C1432.8594,711.4688 1432.7188,711.2188 1432.7188,710.9375 C1432.7188,710.6563 1432.875,710.3594 1433.125,710.2031 C1433.2813,710.1094 1433.4063,710.0938 1433.8438,710.0938 L1441.4688,710.0938 L1441.4688,712.6406 C1441.4688,713.1094 1441.4375,713.25 1441.3281,713.4219 C1441.1563,713.6406 1440.8906,713.7813 1440.625,713.7813 C1440.3438,713.7813 1440.0625,713.625 1439.8906,713.375 C1439.8125,713.2188 1439.7813,713.0469 1439.7813,712.6406 L1439.7813,711.7813 L1435.7969,711.7813 L1435.7969,714.1875 L1437.25,714.1875 L1437.25,714.0625 C1437.25,713.6094 1437.2813,713.4531 1437.3906,713.2813 C1437.5625,713.0625 1437.8281,712.9219 1438.0781,712.9219 C1438.5313,712.9219 1438.8438,713.2344 1438.9063,713.7031 C1438.9219,713.8594 1438.9219,713.9063 1438.9219,714.0625 L1438.9219,715.9844 C1438.9219,716.4375 1438.8906,716.5938 1438.7656,716.75 C1438.6094,716.9688 1438.3438,717.1094 1438.0938,717.1094 C1437.7969,717.1094 1437.5156,716.9531 1437.3594,716.7031 C1437.2813,716.5469 1437.25,716.3906 1437.25,715.9844 L1437.25,715.875 Z "/><text fill="#000000" font-family="sans-serif" font-size="12" lengthAdjust="spacingAndGlyphs" textLength="45" x="1451.5" y="719.1543">Durees</text><line style="stroke: #A80036; stroke-width: 1.5;" x1="1423.5" x2="1498.5" y1="731" y2="731"/><line style="stroke: #A80036; stroke-width: 1.5;" x1="1423.5" x2="1498.5" y1="739" y2="739"/><!--class Alterations--><rect fill="#FEFECE" filter="url(#f1p5nk9n68qolh)" height="48" id="Alterations" style="stroke: #A80036; stroke-width: 1.5;" width="100" x="1535" y="699"/><ellipse cx="1550" cy="715" fill="#EB937F" rx="11" ry="11" style="stroke: #A80036; stroke-width: 1.0;"/><path d="M1548.2969,715.875 L1548.2969,718.2969 L1552.6563,718.2969 L1552.6563,717.4219 C1552.6563,716.9375 1552.6875,716.7969 1552.7969,716.6406 C1552.9688,716.3906 1553.2344,716.2813 1553.5,716.2813 C1553.7813,716.2813 1554.0625,716.4375 1554.2344,716.6875 C1554.3125,716.8438 1554.3438,716.9844 1554.3438,717.4219 L1554.3438,720 L1546.3438,720 C1545.9531,720 1545.7188,719.9531 1545.5781,719.8281 C1545.3594,719.6719 1545.2188,719.4219 1545.2188,719.1563 C1545.2188,718.8594 1545.375,718.5938 1545.625,718.4219 C1545.7813,718.3125 1545.9375,718.2969 1546.3438,718.2969 L1546.5938,718.2969 L1546.5938,711.7813 L1546.3438,711.7813 C1545.9219,711.7813 1545.7344,711.75 1545.5781,711.6406 C1545.3594,711.4688 1545.2188,711.2188 1545.2188,710.9375 C1545.2188,710.6563 1545.375,710.3594 1545.625,710.2031 C1545.7813,710.1094 1545.9063,710.0938 1546.3438,710.0938 L1553.9688,710.0938 L1553.9688,712.6406 C1553.9688,713.1094 1553.9375,713.25 1553.8281,713.4219 C1553.6563,713.6406 1553.3906,713.7813 1553.125,713.7813 C1552.8438,713.7813 1552.5625,713.625 1552.3906,713.375 C1552.3125,713.2188 1552.2813,713.0469 1552.2813,712.6406 L1552.2813,711.7813 L1548.2969,711.7813 L1548.2969,714.1875 L1549.75,714.1875 L1549.75,714.0625 C1549.75,713.6094 1549.7813,713.4531 1549.8906,713.2813 C1550.0625,713.0625 1550.3281,712.9219 1550.5781,712.9219 C1551.0313,712.9219 1551.3438,713.2344 1551.4063,713.7031 C1551.4219,713.8594 1551.4219,713.9063 1551.4219,714.0625 L1551.4219,715.9844 C1551.4219,716.4375 1551.3906,716.5938 1551.2656,716.75 C1551.1094,716.9688 1550.8438,717.1094 1550.5938,717.1094 C1550.2969,717.1094 1550.0156,716.9531 1549.8594,716.7031 C1549.7813,716.5469 1549.75,716.3906 1549.75,715.9844 L1549.75,715.875 Z "/><text fill="#000000" font-family="sans-serif" font-size="12" lengthAdjust="spacingAndGlyphs" textLength="68" x="1564" y="719.1543">Alterations</text><line style="stroke: #A80036; stroke-width: 1.5;" x1="1536" x2="1634" y1="731" y2="731"/><line style="stroke: #A80036; stroke-width: 1.5;" x1="1536" x2="1634" y1="739" y2="739"/><!--class Instrument--><rect fill="#FEFECE" filter="url(#f1p5nk9n68qolh)" height="48" id="Instrument" style="stroke: #A80036; stroke-width: 1.5;" width="100" x="1670" y="699"/><ellipse cx="1685" cy="715" fill="#EB937F" rx="11" ry="11" style="stroke: #A80036; stroke-width: 1.0;"/><path d="M1683.2969,715.875 L1683.2969,718.2969 L1687.6563,718.2969 L1687.6563,717.4219 C1687.6563,716.9375 1687.6875,716.7969 1687.7969,716.6406 C1687.9688,716.3906 1688.2344,716.2813 1688.5,716.2813 C1688.7813,716.2813 1689.0625,716.4375 1689.2344,716.6875 C1689.3125,716.8438 1689.3438,716.9844 1689.3438,717.4219 L1689.3438,720 L1681.3438,720 C1680.9531,720 1680.7188,719.9531 1680.5781,719.8281 C1680.3594,719.6719 1680.2188,719.4219 1680.2188,719.1563 C1680.2188,718.8594 1680.375,718.5938 1680.625,718.4219 C1680.7813,718.3125 1680.9375,718.2969 1681.3438,718.2969 L1681.5938,718.2969 L1681.5938,711.7813 L1681.3438,711.7813 C1680.9219,711.7813 1680.7344,711.75 1680.5781,711.6406 C1680.3594,711.4688 1680.2188,711.2188 1680.2188,710.9375 C1680.2188,710.6563 1680.375,710.3594 1680.625,710.2031 C1680.7813,710.1094 1680.9063,710.0938 1681.3438,710.0938 L1688.9688,710.0938 L1688.9688,712.6406 C1688.9688,713.1094 1688.9375,713.25 1688.8281,713.4219 C1688.6563,713.6406 1688.3906,713.7813 1688.125,713.7813 C1687.8438,713.7813 1687.5625,713.625 1687.3906,713.375 C1687.3125,713.2188 1687.2813,713.0469 1687.2813,712.6406 L1687.2813,711.7813 L1683.2969,711.7813 L1683.2969,714.1875 L1684.75,714.1875 L1684.75,714.0625 C1684.75,713.6094 1684.7813,713.4531 1684.8906,713.2813 C1685.0625,713.0625 1685.3281,712.9219 1685.5781,712.9219 C1686.0313,712.9219 1686.3438,713.2344 1686.4063,713.7031 C1686.4219,713.8594 1686.4219,713.9063 1686.4219,714.0625 L1686.4219,715.9844 C1686.4219,716.4375 1686.3906,716.5938 1686.2656,716.75 C1686.1094,716.9688 1685.8438,717.1094 1685.5938,717.1094 C1685.2969,717.1094 1685.0156,716.9531 1684.8594,716.7031 C1684.7813,716.5469 1684.75,716.3906 1684.75,715.9844 L1684.75,715.875 Z "/><text fill="#000000" font-family="sans-serif" font-size="12" lengthAdjust="spacingAndGlyphs" textLength="68" x="1699" y="719.1543">Instrument</text><line style="stroke: #A80036; stroke-width: 1.5;" x1="1671" x2="1769" y1="731" y2="731"/><line style="stroke: #A80036; stroke-width: 1.5;" x1="1671" x2="1769" y1="739" y2="739"/><!--class Notation--><rect fill="#FEFECE" filter="url(#f1p5nk9n68qolh)" height="124.8281" id="Notation" style="stroke: #A80036; stroke-width: 1.5;" width="404" x="1366" y="807"/><ellipse cx="1536.75" cy="823" fill="#ADD1B2" rx="11" ry="11" style="stroke: #A80036; stroke-width: 1.0;"/><path d="M1539.0938,818.6719 L1539.2656,818.75 C1539.4844,818.4375 1539.6875,818.3438 1539.9844,818.3438 C1540.2813,818.3438 1540.5625,818.4844 1540.7188,818.75 C1540.8125,818.9063 1540.8281,819.0313 1540.8281,819.4688 L1540.8281,820.8906 C1540.8281,821.3125 1540.7969,821.5 1540.6875,821.6563 C1540.5156,821.875 1540.25,822.0156 1539.9844,822.0156 C1539.7656,822.0156 1539.5313,821.9063 1539.3906,821.7656 C1539.25,821.6406 1539.2188,821.5156 1539.1563,821.1094 C1539.0625,820.7031 1538.8906,820.4844 1538.4063,820.2031 C1537.9375,819.9531 1537.3281,819.7969 1536.75,819.7969 C1535.0156,819.7969 1533.7656,821.1094 1533.7656,822.8906 L1533.7656,823.9844 C1533.7656,825.6875 1535.0625,826.7813 1537.1094,826.7813 C1537.875,826.7813 1538.5625,826.6563 1538.9844,826.3906 C1539.1719,826.2969 1539.1719,826.2969 1539.625,825.8125 C1539.8125,825.625 1540.0156,825.5469 1540.2344,825.5469 C1540.7031,825.5469 1541.0938,825.9375 1541.0938,826.3906 C1541.0938,826.7813 1540.7656,827.2344 1540.1875,827.6406 C1539.4375,828.1875 1538.2813,828.4844 1537.0625,828.4844 C1534.1719,828.4844 1532.0625,826.5938 1532.0625,824.0156 L1532.0625,822.8906 C1532.0625,820.1719 1534.0625,818.0938 1536.6875,818.0938 C1537.5625,818.0938 1538.1563,818.2344 1539.0938,818.6719 Z "/><text fill="#000000" font-family="sans-serif" font-size="12" lengthAdjust="spacingAndGlyphs" textLength="54" x="1557.25" y="827.1543">Notation</text><line style="stroke: #A80036; stroke-width: 1.5;" x1="1367" x2="1769" y1="839" y2="839"/><text fill="#000000" font-family="sans-serif" font-size="11" lengthAdjust="spacingAndGlyphs" textLength="112" x="1372" y="853.2104">static Notes notes[]</text><line style="stroke: #A80036; stroke-width: 1.5;" x1="1367" x2="1769" y1="859.8047" y2="859.8047"/><text fill="#000000" font-family="sans-serif" font-size="11" lengthAdjust="spacingAndGlyphs" textLength="247" x="1372" y="874.0151">static String GetNotation(Instrument instru)</text><text fill="#000000" font-family="sans-serif" font-size="11" lengthAdjust="spacingAndGlyphs" textLength="299" x="1372" y="886.8198">static String GetNotation(Notes note, TypeNote type)</text><text fill="#000000" font-family="sans-serif" font-size="11" lengthAdjust="spacingAndGlyphs" textLength="392" x="1372" y="899.6245">static String GetNotation(Notes note, TypeNote type, Durees durees)</text><text fill="#000000" font-family="sans-serif" font-size="11" lengthAdjust="spacingAndGlyphs" textLength="207" x="1372" y="912.4292">static String GetNotation(Silences s)</text><text fill="#000000" font-family="sans-serif" font-size="11" lengthAdjust="spacingAndGlyphs" textLength="200" x="1372" y="925.2339">static String GetNotation(Durees d)</text><!--class BasicNote--><rect fill="#FEFECE" filter="url(#f1p5nk9n68qolh)" height="137.6328" id="BasicNote" style="stroke: #A80036; stroke-width: 1.5;" width="272" x="833" y="494"/><ellipse cx="933.25" cy="510" fill="#ADD1B2" rx="11" ry="11" style="stroke: #A80036; stroke-width: 1.0;"/><path d="M935.5938,505.6719 L935.7656,505.75 C935.9844,505.4375 936.1875,505.3438 936.4844,505.3438 C936.7813,505.3438 937.0625,505.4844 937.2188,505.75 C937.3125,505.9063 937.3281,506.0313 937.3281,506.4688 L937.3281,507.8906 C937.3281,508.3125 937.2969,508.5 937.1875,508.6563 C937.0156,508.875 936.75,509.0156 936.4844,509.0156 C936.2656,509.0156 936.0313,508.9063 935.8906,508.7656 C935.75,508.6406 935.7188,508.5156 935.6563,508.1094 C935.5625,507.7031 935.3906,507.4844 934.9063,507.2031 C934.4375,506.9531 933.8281,506.7969 933.25,506.7969 C931.5156,506.7969 930.2656,508.1094 930.2656,509.8906 L930.2656,510.9844 C930.2656,512.6875 931.5625,513.7813 933.6094,513.7813 C934.375,513.7813 935.0625,513.6563 935.4844,513.3906 C935.6719,513.2969 935.6719,513.2969 936.125,512.8125 C936.3125,512.625 936.5156,512.5469 936.7344,512.5469 C937.2031,512.5469 937.5938,512.9375 937.5938,513.3906 C937.5938,513.7813 937.2656,514.2344 936.6875,514.6406 C935.9375,515.1875 934.7813,515.4844 933.5625,515.4844 C930.6719,515.4844 928.5625,513.5938 928.5625,511.0156 L928.5625,509.8906 C928.5625,507.1719 930.5625,505.0938 933.1875,505.0938 C934.0625,505.0938 934.6563,505.2344 935.5938,505.6719 Z "/><text fill="#000000" font-family="sans-serif" font-size="12" lengthAdjust="spacingAndGlyphs" textLength="63" x="953.75" y="514.1543">BasicNote</text><line style="stroke: #A80036; stroke-width: 1.5;" x1="834" x2="1104" y1="526" y2="526"/><text fill="#000000" font-family="sans-serif" font-size="11" lengthAdjust="spacingAndGlyphs" textLength="142" x="839" y="540.2104">protected String notation</text><line style="stroke: #A80036; stroke-width: 1.5;" x1="834" x2="1104" y1="546.8047" y2="546.8047"/><text fill="#000000" font-family="sans-serif" font-size="11" lengthAdjust="spacingAndGlyphs" textLength="149" x="839" y="561.0151">BasicNote(String notation)</text><text fill="#000000" font-family="sans-serif" font-size="11" lengthAdjust="spacingAndGlyphs" textLength="116" x="839" y="573.8198">void play(Partition p)</text><text fill="#000000" font-family="sans-serif" font-size="11" lengthAdjust="spacingAndGlyphs" textLength="111" x="839" y="586.6245">String getNotation()</text><text fill="#000000" font-family="sans-serif" font-size="11" lengthAdjust="spacingAndGlyphs" textLength="165" x="839" y="599.4292">abstract void monterLeTon();</text><text fill="#000000" font-family="sans-serif" font-size="11" lengthAdjust="spacingAndGlyphs" textLength="184" x="839" y="612.2339">abstract void descendreLeTon();</text><text fill="#000000" font-family="sans-serif" font-size="11" lengthAdjust="spacingAndGlyphs" textLength="260" x="839" y="625.0386">abstract void transposer(int transposeValue);</text><!--class Note--><rect fill="#FEFECE" filter="url(#f1p5nk9n68qolh)" height="112.0234" id="Note" style="stroke: #A80036; stroke-width: 1.5;" width="443" x="354.5" y="507"/><ellipse cx="556.75" cy="523" fill="#ADD1B2" rx="11" ry="11" style="stroke: #A80036; stroke-width: 1.0;"/><path d="M559.0938,518.6719 L559.2656,518.75 C559.4844,518.4375 559.6875,518.3438 559.9844,518.3438 C560.2813,518.3438 560.5625,518.4844 560.7188,518.75 C560.8125,518.9063 560.8281,519.0313 560.8281,519.4688 L560.8281,520.8906 C560.8281,521.3125 560.7969,521.5 560.6875,521.6563 C560.5156,521.875 560.25,522.0156 559.9844,522.0156 C559.7656,522.0156 559.5313,521.9063 559.3906,521.7656 C559.25,521.6406 559.2188,521.5156 559.1563,521.1094 C559.0625,520.7031 558.8906,520.4844 558.4063,520.2031 C557.9375,519.9531 557.3281,519.7969 556.75,519.7969 C555.0156,519.7969 553.7656,521.1094 553.7656,522.8906 L553.7656,523.9844 C553.7656,525.6875 555.0625,526.7813 557.1094,526.7813 C557.875,526.7813 558.5625,526.6563 558.9844,526.3906 C559.1719,526.2969 559.1719,526.2969 559.625,525.8125 C559.8125,525.625 560.0156,525.5469 560.2344,525.5469 C560.7031,525.5469 561.0938,525.9375 561.0938,526.3906 C561.0938,526.7813 560.7656,527.2344 560.1875,527.6406 C559.4375,528.1875 558.2813,528.4844 557.0625,528.4844 C554.1719,528.4844 552.0625,526.5938 552.0625,524.0156 L552.0625,522.8906 C552.0625,520.1719 554.0625,518.0938 556.6875,518.0938 C557.5625,518.0938 558.1563,518.2344 559.0938,518.6719 Z "/><text fill="#000000" font-family="sans-serif" font-size="12" lengthAdjust="spacingAndGlyphs" textLength="30" x="577.25" y="527.1543">Note</text><line style="stroke: #A80036; stroke-width: 1.5;" x1="355.5" x2="796.5" y1="539" y2="539"/><line style="stroke: #A80036; stroke-width: 1.5;" x1="355.5" x2="796.5" y1="547" y2="547"/><text fill="#000000" font-family="sans-serif" font-size="11" lengthAdjust="spacingAndGlyphs" textLength="431" x="360.5" y="561.2104">Note(Notation.Notes note, Notation.TypeNote type, Notation.Durees durees)</text><text fill="#000000" font-family="sans-serif" font-size="11" lengthAdjust="spacingAndGlyphs" textLength="110" x="360.5" y="574.0151">void monterLeTon()</text><text fill="#000000" font-family="sans-serif" font-size="11" lengthAdjust="spacingAndGlyphs" textLength="129" x="360.5" y="586.8198">void descendreLeTon()</text><text fill="#000000" font-family="sans-serif" font-size="11" lengthAdjust="spacingAndGlyphs" textLength="121" x="360.5" y="599.6245">void updateNotation()</text><text fill="#000000" font-family="sans-serif" font-size="11" lengthAdjust="spacingAndGlyphs" textLength="205" x="360.5" y="612.4292">void transposer(int transposeValue)</text><!--class Silence--><rect fill="#FEFECE" filter="url(#f1p5nk9n68qolh)" height="99.2188" id="Silence" style="stroke: #A80036; stroke-width: 1.5;" width="217" x="102.5" y="513.5"/><ellipse cx="184.25" cy="529.5" fill="#ADD1B2" rx="11" ry="11" style="stroke: #A80036; stroke-width: 1.0;"/><path d="M186.5938,525.1719 L186.7656,525.25 C186.9844,524.9375 187.1875,524.8438 187.4844,524.8438 C187.7813,524.8438 188.0625,524.9844 188.2188,525.25 C188.3125,525.4063 188.3281,525.5313 188.3281,525.9688 L188.3281,527.3906 C188.3281,527.8125 188.2969,528 188.1875,528.1563 C188.0156,528.375 187.75,528.5156 187.4844,528.5156 C187.2656,528.5156 187.0313,528.4063 186.8906,528.2656 C186.75,528.1406 186.7188,528.0156 186.6563,527.6094 C186.5625,527.2031 186.3906,526.9844 185.9063,526.7031 C185.4375,526.4531 184.8281,526.2969 184.25,526.2969 C182.5156,526.2969 181.2656,527.6094 181.2656,529.3906 L181.2656,530.4844 C181.2656,532.1875 182.5625,533.2813 184.6094,533.2813 C185.375,533.2813 186.0625,533.1563 186.4844,532.8906 C186.6719,532.7969 186.6719,532.7969 187.125,532.3125 C187.3125,532.125 187.5156,532.0469 187.7344,532.0469 C188.2031,532.0469 188.5938,532.4375 188.5938,532.8906 C188.5938,533.2813 188.2656,533.7344 187.6875,534.1406 C186.9375,534.6875 185.7813,534.9844 184.5625,534.9844 C181.6719,534.9844 179.5625,533.0938 179.5625,530.5156 L179.5625,529.3906 C179.5625,526.6719 181.5625,524.5938 184.1875,524.5938 C185.0625,524.5938 185.6563,524.7344 186.5938,525.1719 Z "/><text fill="#000000" font-family="sans-serif" font-size="12" lengthAdjust="spacingAndGlyphs" textLength="45" x="204.75" y="533.6543">Silence</text><line style="stroke: #A80036; stroke-width: 1.5;" x1="103.5" x2="318.5" y1="545.5" y2="545.5"/><line style="stroke: #A80036; stroke-width: 1.5;" x1="103.5" x2="318.5" y1="553.5" y2="553.5"/><text fill="#000000" font-family="sans-serif" font-size="11" lengthAdjust="spacingAndGlyphs" textLength="159" x="108.5" y="567.7104">Silence(Notation.Silences s)</text><text fill="#000000" font-family="sans-serif" font-size="11" lengthAdjust="spacingAndGlyphs" textLength="129" x="108.5" y="580.5151">void descendreLeTon()</text><text fill="#000000" font-family="sans-serif" font-size="11" lengthAdjust="spacingAndGlyphs" textLength="205" x="108.5" y="593.3198">void transposer(int transposeValue)</text><text fill="#000000" font-family="sans-serif" font-size="11" lengthAdjust="spacingAndGlyphs" textLength="110" x="108.5" y="606.1245">void monterLeTon()</text><!--class Serializable--><rect fill="#FEFECE" filter="url(#f1p5nk9n68qolh)" height="48" id="Serializable" style="stroke: #A80036; stroke-width: 1.5;" width="102" x="1850" y="539"/><ellipse cx="1865" cy="555" fill="#ADD1B2" rx="11" ry="11" style="stroke: #A80036; stroke-width: 1.0;"/><path d="M1867.3438,550.6719 L1867.5156,550.75 C1867.7344,550.4375 1867.9375,550.3438 1868.2344,550.3438 C1868.5313,550.3438 1868.8125,550.4844 1868.9688,550.75 C1869.0625,550.9063 1869.0781,551.0313 1869.0781,551.4688 L1869.0781,552.8906 C1869.0781,553.3125 1869.0469,553.5 1868.9375,553.6563 C1868.7656,553.875 1868.5,554.0156 1868.2344,554.0156 C1868.0156,554.0156 1867.7813,553.9063 1867.6406,553.7656 C1867.5,553.6406 1867.4688,553.5156 1867.4063,553.1094 C1867.3125,552.7031 1867.1406,552.4844 1866.6563,552.2031 C1866.1875,551.9531 1865.5781,551.7969 1865,551.7969 C1863.2656,551.7969 1862.0156,553.1094 1862.0156,554.8906 L1862.0156,555.9844 C1862.0156,557.6875 1863.3125,558.7813 1865.3594,558.7813 C1866.125,558.7813 1866.8125,558.6563 1867.2344,558.3906 C1867.4219,558.2969 1867.4219,558.2969 1867.875,557.8125 C1868.0625,557.625 1868.2656,557.5469 1868.4844,557.5469 C1868.9531,557.5469 1869.3438,557.9375 1869.3438,558.3906 C1869.3438,558.7813 1869.0156,559.2344 1868.4375,559.6406 C1867.6875,560.1875 1866.5313,560.4844 1865.3125,560.4844 C1862.4219,560.4844 1860.3125,558.5938 1860.3125,556.0156 L1860.3125,554.8906 C1860.3125,552.1719 1862.3125,550.0938 1864.9375,550.0938 C1865.8125,550.0938 1866.4063,550.2344 1867.3438,550.6719 Z "/><text fill="#000000" font-family="sans-serif" font-size="12" lengthAdjust="spacingAndGlyphs" textLength="70" x="1879" y="559.1543">Serializable</text><line style="stroke: #A80036; stroke-width: 1.5;" x1="1851" x2="1951" y1="571" y2="571"/><line style="stroke: #A80036; stroke-width: 1.5;" x1="1851" x2="1951" y1="579" y2="579"/><!--class Controller--><rect fill="#FEFECE" filter="url(#f1p5nk9n68qolh)" height="48" id="Controller" style="stroke: #A80036; stroke-width: 1.5;" width="93" x="1987.5" y="539"/><ellipse cx="2002.5" cy="555" fill="#ADD1B2" rx="11" ry="11" style="stroke: #A80036; stroke-width: 1.0;"/><path d="M2004.8438,550.6719 L2005.0156,550.75 C2005.2344,550.4375 2005.4375,550.3438 2005.7344,550.3438 C2006.0313,550.3438 2006.3125,550.4844 2006.4688,550.75 C2006.5625,550.9063 2006.5781,551.0313 2006.5781,551.4688 L2006.5781,552.8906 C2006.5781,553.3125 2006.5469,553.5 2006.4375,553.6563 C2006.2656,553.875 2006,554.0156 2005.7344,554.0156 C2005.5156,554.0156 2005.2813,553.9063 2005.1406,553.7656 C2005,553.6406 2004.9688,553.5156 2004.9063,553.1094 C2004.8125,552.7031 2004.6406,552.4844 2004.1563,552.2031 C2003.6875,551.9531 2003.0781,551.7969 2002.5,551.7969 C2000.7656,551.7969 1999.5156,553.1094 1999.5156,554.8906 L1999.5156,555.9844 C1999.5156,557.6875 2000.8125,558.7813 2002.8594,558.7813 C2003.625,558.7813 2004.3125,558.6563 2004.7344,558.3906 C2004.9219,558.2969 2004.9219,558.2969 2005.375,557.8125 C2005.5625,557.625 2005.7656,557.5469 2005.9844,557.5469 C2006.4531,557.5469 2006.8438,557.9375 2006.8438,558.3906 C2006.8438,558.7813 2006.5156,559.2344 2005.9375,559.6406 C2005.1875,560.1875 2004.0313,560.4844 2002.8125,560.4844 C1999.9219,560.4844 1997.8125,558.5938 1997.8125,556.0156 L1997.8125,554.8906 C1997.8125,552.1719 1999.8125,550.0938 2002.4375,550.0938 C2003.3125,550.0938 2003.9063,550.2344 2004.8438,550.6719 Z "/><text fill="#000000" font-family="sans-serif" font-size="12" lengthAdjust="spacingAndGlyphs" textLength="61" x="2016.5" y="559.1543">Controller</text><line style="stroke: #A80036; stroke-width: 1.5;" x1="1988.5" x2="2079.5" y1="571" y2="571"/><line style="stroke: #A80036; stroke-width: 1.5;" x1="1988.5" x2="2079.5" y1="579" y2="579"/><!--class Observable--><rect fill="#FEFECE" filter="url(#f1p5nk9n68qolh)" height="48" id="Observable" style="stroke: #A80036; stroke-width: 1.5;" width="102" x="1965" y="264"/><ellipse cx="1980" cy="280" fill="#ADD1B2" rx="11" ry="11" style="stroke: #A80036; stroke-width: 1.0;"/><path d="M1982.3438,275.6719 L1982.5156,275.75 C1982.7344,275.4375 1982.9375,275.3438 1983.2344,275.3438 C1983.5313,275.3438 1983.8125,275.4844 1983.9688,275.75 C1984.0625,275.9063 1984.0781,276.0313 1984.0781,276.4688 L1984.0781,277.8906 C1984.0781,278.3125 1984.0469,278.5 1983.9375,278.6563 C1983.7656,278.875 1983.5,279.0156 1983.2344,279.0156 C1983.0156,279.0156 1982.7813,278.9063 1982.6406,278.7656 C1982.5,278.6406 1982.4688,278.5156 1982.4063,278.1094 C1982.3125,277.7031 1982.1406,277.4844 1981.6563,277.2031 C1981.1875,276.9531 1980.5781,276.7969 1980,276.7969 C1978.2656,276.7969 1977.0156,278.1094 1977.0156,279.8906 L1977.0156,280.9844 C1977.0156,282.6875 1978.3125,283.7813 1980.3594,283.7813 C1981.125,283.7813 1981.8125,283.6563 1982.2344,283.3906 C1982.4219,283.2969 1982.4219,283.2969 1982.875,282.8125 C1983.0625,282.625 1983.2656,282.5469 1983.4844,282.5469 C1983.9531,282.5469 1984.3438,282.9375 1984.3438,283.3906 C1984.3438,283.7813 1984.0156,284.2344 1983.4375,284.6406 C1982.6875,285.1875 1981.5313,285.4844 1980.3125,285.4844 C1977.4219,285.4844 1975.3125,283.5938 1975.3125,281.0156 L1975.3125,279.8906 C1975.3125,277.1719 1977.3125,275.0938 1979.9375,275.0938 C1980.8125,275.0938 1981.4063,275.2344 1982.3438,275.6719 Z "/><text fill="#000000" font-family="sans-serif" font-size="12" lengthAdjust="spacingAndGlyphs" textLength="70" x="1994" y="284.1543">Observable</text><line style="stroke: #A80036; stroke-width: 1.5;" x1="1966" x2="2066" y1="296" y2="296"/><line style="stroke: #A80036; stroke-width: 1.5;" x1="1966" x2="2066" y1="304" y2="304"/><!--class Iterable--><rect fill="#FEFECE" filter="url(#f1p5nk9n68qolh)" height="48" id="Iterable" style="stroke: #A80036; stroke-width: 1.5;" width="80" x="1850" y="264"/><ellipse cx="1865" cy="280" fill="#ADD1B2" rx="11" ry="11" style="stroke: #A80036; stroke-width: 1.0;"/><path d="M1867.3438,275.6719 L1867.5156,275.75 C1867.7344,275.4375 1867.9375,275.3438 1868.2344,275.3438 C1868.5313,275.3438 1868.8125,275.4844 1868.9688,275.75 C1869.0625,275.9063 1869.0781,276.0313 1869.0781,276.4688 L1869.0781,277.8906 C1869.0781,278.3125 1869.0469,278.5 1868.9375,278.6563 C1868.7656,278.875 1868.5,279.0156 1868.2344,279.0156 C1868.0156,279.0156 1867.7813,278.9063 1867.6406,278.7656 C1867.5,278.6406 1867.4688,278.5156 1867.4063,278.1094 C1867.3125,277.7031 1867.1406,277.4844 1866.6563,277.2031 C1866.1875,276.9531 1865.5781,276.7969 1865,276.7969 C1863.2656,276.7969 1862.0156,278.1094 1862.0156,279.8906 L1862.0156,280.9844 C1862.0156,282.6875 1863.3125,283.7813 1865.3594,283.7813 C1866.125,283.7813 1866.8125,283.6563 1867.2344,283.3906 C1867.4219,283.2969 1867.4219,283.2969 1867.875,282.8125 C1868.0625,282.625 1868.2656,282.5469 1868.4844,282.5469 C1868.9531,282.5469 1869.3438,282.9375 1869.3438,283.3906 C1869.3438,283.7813 1869.0156,284.2344 1868.4375,284.6406 C1867.6875,285.1875 1866.5313,285.4844 1865.3125,285.4844 C1862.4219,285.4844 1860.3125,283.5938 1860.3125,281.0156 L1860.3125,279.8906 C1860.3125,277.1719 1862.3125,275.0938 1864.9375,275.0938 C1865.8125,275.0938 1866.4063,275.2344 1867.3438,275.6719 Z "/><text fill="#000000" font-family="sans-serif" font-size="12" lengthAdjust="spacingAndGlyphs" textLength="48" x="1879" y="284.1543">Iterable</text><line style="stroke: #A80036; stroke-width: 1.5;" x1="1851" x2="1929" y1="296" y2="296"/><line style="stroke: #A80036; stroke-width: 1.5;" x1="1851" x2="1929" y1="304" y2="304"/><!--link Model to Controller--><path d="M1749.94,382.621 C1775.6,400.389 1804.02,416.641 1833,427 C1861.72,437.263 1944.51,418.258 1970,435 C2006.01,458.653 2022.67,509.069 2029.62,538.772 " fill="none" id="Model-Controller" style="stroke: #A80036; stroke-width: 1.0;"/><text fill="#000000" font-family="sans-serif" font-size="13" lengthAdjust="spacingAndGlyphs" textLength="7" x="2020.6993" y="528.1214">*</text><!--link Model to Observable--><path d="M1689.97,193.459 C1743.2,99.953 1835.04,-21.83 1930.5,33 C2002.8,74.528 2015.84,182.195 2017.11,243.525 " fill="none" id="Model-Observable" style="stroke: #A80036; stroke-width: 1.0; stroke-dasharray: 7.0,7.0;"/><polygon fill="none" points="2024.11,243.807,2017.13,263.816,2010.11,243.824,2024.11,243.807" style="stroke: #A80036; stroke-width: 1.0;"/><!--link Melodie to BasicNote--><path d="M1229.26,372.021 C1175.86,411.003 1112.99,456.898 1062.41,493.812 " fill="none" id="Melodie-BasicNote" style="stroke: #A80036; stroke-width: 1.0;"/><text fill="#000000" font-family="sans-serif" font-size="13" lengthAdjust="spacingAndGlyphs" textLength="7" x="1064.682" y="482.9962">*</text><!--link Melodie to Iterable--><path d="M1391.76,148.758 C1414.93,103.67 1447.64,58.702 1492.5,33 C1550.35,-0.14 1734.69,-0.2 1792.5,33 C1865.89,75.154 1884.34,182.573 1888.78,243.697 " fill="none" id="Melodie-Iterable" style="stroke: #A80036; stroke-width: 1.0; stroke-dasharray: 7.0,7.0;"/><polygon fill="none" points="1895.78,243.57,1889.86,263.915,1881.8,244.316,1895.78,243.57" style="stroke: #A80036; stroke-width: 1.0;"/><!--link Melodie to Serializable--><path d="M1456.73,414.449 C1462.71,418.929 1468.81,423.143 1475,427 C1588.35,497.632 1741.89,534.316 1830.31,550.77 " fill="none" id="Melodie-Serializable" style="stroke: #A80036; stroke-width: 1.0; stroke-dasharray: 7.0,7.0;"/><polygon fill="none" points="1831.55,543.881,1850,554.299,1829.08,557.661,1831.55,543.881" style="stroke: #A80036; stroke-width: 1.0;"/><!--link BasicNote to Serializable--><path d="M1105.07,563 C1346.49,563 1587.92,563 1829.34,563 " fill="none" id="BasicNote-Serializable" style="stroke: #A80036; stroke-width: 1.0;"/><polygon fill="none" points="1829.7,556,1849.7,563,1829.7,570,1829.7,556" style="stroke: #A80036; stroke-width: 1.0;"/><!--link Note to BasicNote--><path d="M797.83,563 C802.858,563 807.886,563 812.913,563 " fill="none" id="Note-BasicNote" style="stroke: #A80036; stroke-width: 1.0;"/><polygon fill="none" points="812.933,556,832.933,563,812.933,570,812.933,556" style="stroke: #A80036; stroke-width: 1.0;"/><!--link Silence to BasicNote--><path d="M248.127,513.269 C270.892,486.2 302.282,454.374 337,435 C343.967,431.112 346.572,431.895 354.5,431 C378.956,428.241 773.044,428.241 797.5,431 C834.83,435.212 869.161,456.269 897.141,480.371 " fill="none" id="Silence-BasicNote" style="stroke: #A80036; stroke-width: 1.0;"/><polygon fill="none" points="901.988,475.317,912.011,493.986,892.533,485.643,901.988,475.317" style="stroke: #A80036; stroke-width: 1.0;"/><!--link Note to Notes--><path d="M576,619.261 C576,663.4 576,718.438 576,721.835 " fill="none" id="Note-Notes" style="stroke: #A80036; stroke-width: 1.0;"/><text fill="#000000" font-family="sans-serif" font-size="13" lengthAdjust="spacingAndGlyphs" textLength="8" x="568" y="718.9019">1</text><!--link Note to TypeNote--><path d="M708.576,619.052 C742.679,630.852 779.719,641.666 815,648 C840.321,652.546 1254.4,645.768 1278,656 C1298.36,664.824 1315.47,683.523 1326.87,698.773 " fill="none" id="Note-TypeNote" style="stroke: #A80036; stroke-width: 1.0;"/><text fill="#000000" font-family="sans-serif" font-size="13" lengthAdjust="spacingAndGlyphs" textLength="8" x="1314.2071" y="688.1226">1</text><!--link Note to Durees--><path d="M708.246,619.034 C742.436,630.875 779.599,641.713 815,648 C847.276,653.732 1375.35,642.026 1405,656 C1423.89,664.904 1438.78,683.597 1448.44,698.823 " fill="none" id="Note-Durees" style="stroke: #A80036; stroke-width: 1.0;"/><text fill="#000000" font-family="sans-serif" font-size="13" lengthAdjust="spacingAndGlyphs" textLength="8" x="1436.1965" y="687.7897">1</text><!--link Silence to Silences--><path d="M268.868,612.71 C289.132,626.894 312.881,640.565 337,648 C379.475,661.092 1095.16,641.016 1137,656 C1161.09,664.625 1183.35,683.555 1198.59,698.94 " fill="none" id="Silence-Silences" style="stroke: #A80036; stroke-width: 1.0;"/><text fill="#000000" font-family="sans-serif" font-size="13" lengthAdjust="spacingAndGlyphs" textLength="8" x="1184.3349" y="687.9367">1</text><!--link Alterations to Instrument--><!--link Alterations to Notation--><!--
@startuml
package Arezzo
{
	package Backend
	{
		class Melodie
		{
			String titre;
			transient Partition partition;
			Melodie(String titre)
			Melodie()
			void ajouter(BasicNote a)
			String constructMelodie()
			void PlayCurrent()
			void ajouterSilence(Silence s)
			void removeNote(BasicNote note)
			void monterLeTon(BasicNote note)
			void descendreLeTon(BasicNote note)
			void setInstrument(String instru)
			void setVolume(double v)
			void setTempo(double t)
			String getMelodieNotation()
			Iterator<BasicNote> iterator()
			void setTitre(String titre)
			void transposer(int transposeValue)
		}

		class Model
		{
			Model(Controller... observers)
			setNote(Notation.Notes nt)
			setInstru(Notation.Instrument instru)
			void ajouterSilence()
			void removeNote(BasicNote note)
			void monterLeTon(BasicNote note)
			void descendreLeTon(BasicNote note)
			void setName(String titre)
			void reset()
			void setMelodieNotes(ArrayList<BasicNote> notes)
			void transposeMelodie(int transposeValue)
		}

		package Notation
		{
			enum TypeNote
			enum Silences
			enum Durees
			enum Notes
			enum Alterations
			enum Instrument
			class Notation{
				static Notes notes[]
				static String GetNotation(Instrument instru)
				static String GetNotation(Notes note, TypeNote type)
				static String GetNotation(Notes note, TypeNote type, Durees durees)
				static String GetNotation(Silences s)
				static String GetNotation(Durees d)
			}
		}
		
		package Notes
		{
			class BasicNote
			{
				protected String notation
				BasicNote(String notation)
				void play(Partition p)
				String getNotation()
				abstract void monterLeTon();
				abstract void descendreLeTon();
				abstract void transposer(int transposeValue);
			}
			
			class Note
			{
				Note(Notation.Notes note, Notation.TypeNote type, Notation.Durees durees)
				void monterLeTon()
				void descendreLeTon()
				void updateNotation()
				void transposer(int transposeValue)
			}
			class Silence
			{
				Silence(Notation.Silences s)
				void descendreLeTon()
				void transposer(int transposeValue)
				void monterLeTon()
			}
		}
	}
}

class Serializable
Model - - "*" Controller
Model .|> Observable
Melodie - - "*" BasicNote
Melodie .|> Iterable
Melodie .|> Serializable
BasicNote -|> Serializable
Note -|> BasicNote
Silence -|> BasicNote
Note - - "1" Notes
Note - - "1" TypeNote
Note - - "1" Durees
Silence - - "1" Silences
@enduml

PlantUML version 1.2019.05(Sat Apr 20 16:45:36 UTC 2019)
(GPL source distribution)
Java Runtime: Java(TM) SE Runtime Environment
JVM: Java HotSpot(TM) 64-Bit Server VM
Java Version: 1.7.0_25-b15
Operating System: Linux
Default Encoding: UTF-8
Language: en
Country: US
--></g></svg>